<?xml version="1.0" encoding="UTF-8" standalone="no"?>
<svg
   xmlns:dc="http://purl.org/dc/elements/1.1/"
   xmlns:cc="http://creativecommons.org/ns#"
   xmlns:rdf="http://www.w3.org/1999/02/22-rdf-syntax-ns#"
   xmlns:svg="http://www.w3.org/2000/svg"
   xmlns="http://www.w3.org/2000/svg"
   xmlns:sodipodi="http://sodipodi.sourceforge.net/DTD/sodipodi-0.dtd"
   xmlns:inkscape="http://www.inkscape.org/namespaces/inkscape"
   version="1.1"
   id="svg2"
   xml:space="preserve"
   width="1000"
   height="666.66669"
   viewBox="0 0 1000 666.66669"
   sodipodi:docname="4249640.eps"><metadata
     id="metadata8"><rdf:RDF><cc:Work
         rdf:about=""><dc:format>image/svg+xml</dc:format><dc:type
           rdf:resource="http://purl.org/dc/dcmitype/StillImage" /></cc:Work></rdf:RDF></metadata><defs
     id="defs6" /><sodipodi:namedview
     pagecolor="#ffffff"
     bordercolor="#666666"
     borderopacity="1"
     objecttolerance="10"
     gridtolerance="10"
     guidetolerance="10"
     inkscape:pageopacity="0"
     inkscape:pageshadow="2"
     inkscape:window-width="640"
     inkscape:window-height="480"
     id="namedview4" /><g
     id="g10"
     inkscape:groupmode="layer"
     inkscape:label="ink_ext_XXXXXX"
     transform="matrix(1.3333333,0,0,-1.3333333,0,666.66667)"><g
       id="g12"
       transform="scale(0.1)"><path
         d="M 7500,0 H 0 V 5000 H 7500 V 0"
         style="fill:#fcfcfe;fill-opacity:1;fill-rule:nonzero;stroke:none"
         id="path14" /><path
         d="M 0,5000 V 2404.5 c 30.7852,-0.93 61.6523,-1.55 92.6641,-1.55 C 1612.38,2402.95 2867.8,3533.87 3063.65,5000 H 0"
         style="fill:#ffffff;fill-opacity:1;fill-rule:nonzero;stroke:none"
         id="path16" /><path
         d="m 5706.81,0 h 549.34 C 6376.26,707.5 6855.59,1292.63 7500,1561.14 v 578.2 C 6553.44,1837.18 5841.54,1009.91 5706.81,0"
         style="fill:#ffffff;fill-opacity:1;fill-rule:nonzero;stroke:none"
         id="path18" /><path
         d="m 7262.26,4577.81 c -16.98,0 -30.75,-13.76 -30.75,-30.74 0,-16.98 13.77,-30.75 30.75,-30.75 16.98,0 30.74,13.77 30.74,30.75 0,16.98 -13.76,30.74 -30.74,30.74 z m -30.75,256.25 c 0,-16.97 13.77,-30.74 30.75,-30.74 16.98,0 30.74,13.77 30.74,30.74 0,16.99 -13.76,30.75 -30.74,30.75 -16.98,0 -30.75,-13.76 -30.75,-30.75 z m -256.25,-256.25 c -16.98,0 -30.74,-13.76 -30.74,-30.74 0,-16.98 13.76,-30.75 30.74,-30.75 16.98,0 30.75,13.77 30.75,30.75 0,16.98 -13.77,30.74 -30.75,30.74 z m -30.74,256.25 c 0,-16.97 13.76,-30.74 30.74,-30.74 16.98,0 30.75,13.77 30.75,30.74 0,16.99 -13.77,30.75 -30.75,30.75 -16.98,0 -30.74,-13.76 -30.74,-30.75 z m -256.26,-256.25 c -16.97,0 -30.74,-13.76 -30.74,-30.74 0,-16.98 13.77,-30.75 30.74,-30.75 16.98,0 30.74,13.77 30.74,30.75 0,16.98 -13.76,30.74 -30.74,30.74 z m -30.74,256.25 c 0,-16.97 13.77,-30.74 30.74,-30.74 16.98,0 30.74,13.77 30.74,30.74 0,16.99 -13.76,30.75 -30.74,30.75 -16.97,0 -30.74,-13.76 -30.74,-30.75 z m -256.25,-256.25 c -16.98,0 -30.75,-13.76 -30.75,-30.74 0,-16.98 13.77,-30.75 30.75,-30.75 16.97,0 30.74,13.77 30.74,30.75 0,16.98 -13.77,30.74 -30.74,30.74 z m -287,287 c -16.98,0 -30.74,-13.76 -30.74,-30.75 0,-16.97 13.76,-30.74 30.74,-30.74 16.98,0 30.74,13.77 30.74,30.74 0,16.99 -13.76,30.75 -30.74,30.75 z m -30.74,-317.74 c 0,-16.98 13.76,-30.75 30.74,-30.75 16.98,0 30.74,13.77 30.74,30.75 0,16.98 -13.76,30.74 -30.74,30.74 -16.98,0 -30.74,-13.76 -30.74,-30.74 z m 317.74,317.74 c 16.97,0 30.74,-13.76 30.74,-30.75 0,-16.97 -13.77,-30.74 -30.74,-30.74 -16.98,0 -30.75,13.77 -30.75,30.74 0,16.99 13.77,30.75 30.75,30.75"
         style="fill:#ffffff;fill-opacity:1;fill-rule:nonzero;stroke:none"
         id="path20" /><path
         d="m 1358.54,267.5 c -16.98,0 -30.75,-13.762 -30.75,-30.738 0,-16.981 13.77,-30.742 30.75,-30.742 16.98,0 30.74,13.761 30.74,30.742 0,16.976 -13.76,30.738 -30.74,30.738 z m -30.75,256.262 c 0,-16.981 13.77,-30.75 30.75,-30.75 16.98,0 30.74,13.769 30.74,30.75 0,16.968 -13.76,30.738 -30.74,30.738 -16.98,0 -30.75,-13.77 -30.75,-30.738 z M 1071.54,267.5 c -16.98,0 -30.74,-13.762 -30.74,-30.738 0,-16.981 13.76,-30.742 30.74,-30.742 16.98,0 30.75,13.761 30.75,30.742 0,16.976 -13.77,30.738 -30.75,30.738 z m -30.74,256.262 c 0,-16.981 13.76,-30.75 30.74,-30.75 16.98,0 30.75,13.769 30.75,30.75 0,16.968 -13.77,30.738 -30.75,30.738 -16.98,0 -30.74,-13.77 -30.74,-30.738 z M 784.547,267.5 c -16.984,0 -30.746,-13.762 -30.746,-30.738 0,-16.981 13.762,-30.742 30.746,-30.742 16.976,0 30.742,13.761 30.742,30.742 0,16.976 -13.766,30.738 -30.742,30.738 z m -30.746,256.262 c 0,-16.981 13.762,-30.75 30.746,-30.75 16.976,0 30.742,13.769 30.742,30.75 0,16.968 -13.766,30.738 -30.742,30.738 -16.984,0 -30.746,-13.77 -30.746,-30.738 z M 497.551,267.5 c -16.985,0 -30.75,-13.762 -30.75,-30.738 0,-16.981 13.765,-30.742 30.75,-30.742 16.976,0 30.742,13.761 30.742,30.742 0,16.976 -13.766,30.738 -30.742,30.738 z m -287,287 c -16.981,0 -30.746,-13.77 -30.746,-30.738 0,-16.981 13.765,-30.75 30.746,-30.75 16.976,0 30.742,13.769 30.742,30.75 0,16.968 -13.766,30.738 -30.742,30.738 z M 179.805,236.762 c 0,-16.981 13.765,-30.742 30.746,-30.742 16.976,0 30.742,13.761 30.742,30.742 0,16.976 -13.766,30.738 -30.742,30.738 -16.981,0 -30.746,-13.762 -30.746,-30.738 z M 497.551,554.5 c 16.976,0 30.742,-13.77 30.742,-30.738 0,-16.981 -13.766,-30.75 -30.742,-30.75 -16.985,0 -30.75,13.769 -30.75,30.75 0,16.968 13.765,30.738 30.75,30.738"
         style="fill:#ffffff;fill-opacity:1;fill-rule:nonzero;stroke:none"
         id="path22" /><path
         d="m 3945.18,1389.35 c -1.72,4.14 -3.68,8.23 -5.98,12.21 L 2555.83,3797.64 c -28.8,49.88 -92.58,66.97 -142.47,38.18 l -1072.44,-619.18 -26.17,45.34 -49.13,-106.88 c -14.45,-30.02 -10.97,-67.32 6.94,-98.35 L 2655.94,660.66 c 28.8,-49.871 92.58,-66.961 142.46,-38.16 l 1102.63,636.6 c 20.58,11.89 35.58,29.73 44.08,50.09 l 49.09,115.44 -49.02,-35.28"
         style="fill:#252120;fill-opacity:1;fill-rule:nonzero;stroke:none"
         id="path24" /><path
         d="M 3950.24,1374.82 2847.62,738.211 C 2797.74,709.41 2733.95,726.5 2705.16,776.391 L 1321.78,3172.47 c -28.8,49.88 -11.71,113.66 38.17,142.46 l 1102.63,636.6 c 49.88,28.8 113.66,11.71 142.46,-38.17 L 3988.42,1517.28 c 28.8,-49.88 11.71,-113.66 -38.18,-142.46"
         style="fill:#ffffff;fill-opacity:1;fill-rule:nonzero;stroke:none"
         id="path26" /><path
         d="m 1788.14,3518.83 c -1.73,0 -3.41,0.89 -4.34,2.5 -1.38,2.39 -0.56,5.45 1.83,6.83 l 279.45,161.34 c 2.37,1.38 5.44,0.57 6.83,-1.83 1.38,-2.4 0.56,-5.45 -1.83,-6.84 L 1790.63,3519.5 c -0.78,-0.46 -1.64,-0.67 -2.49,-0.67"
         style="fill:#f03b3f;fill-opacity:1;fill-rule:nonzero;stroke:none"
         id="path28" /><path
         d="m 2781.25,853.16 c -36.22,-20.898 -82.7,-8.449 -103.6,27.77 L 1365.37,3153.85 c -20.91,36.22 -8.46,82.7 27.76,103.61 l 1102.63,636.6 c 36.22,20.91 82.7,8.46 103.61,-27.76 L 3911.64,1593.38 c 20.92,-36.22 8.46,-82.7 -27.75,-103.61 L 2781.25,853.16"
         style="fill:#fcd13e;fill-opacity:1;fill-rule:nonzero;stroke:none"
         id="path30" /><path
         d="m 3182.11,2856.95 -128.69,222.92 -825.47,-1420.05 128.7,-222.91 z m -1259.77,-667.8 825.47,1420.04 -148.44,257.11 c -20.91,36.22 -67.39,48.67 -103.61,27.76 L 2075.12,3651.2 1574.98,2790.81 Z M 3655.37,2037.27 3060.91,1014.63 2781.25,853.16 c -36.22,-20.898 -82.7,-8.449 -103.6,27.77 l -81.69,141.48 825.47,1420.05 233.94,-405.19"
         style="fill:#fbe074;fill-opacity:1;fill-rule:nonzero;stroke:none"
         id="path32" /><path
         d="m 3562.88,1490.48 -843.36,-99.42 c -28.97,-255.91 -4.9,-452.951 11.84,-547.048 16.62,-2.672 34.22,0.097 49.89,9.148 l 1011.12,583.77 -229.49,53.55"
         style="fill:#252120;fill-opacity:1;fill-rule:nonzero;stroke:none"
         id="path34" /><path
         d="m 3206,909.27 c -9.54,-5.508 -15.2,-13.54 -12.66,-17.95 2.54,-4.41 12.33,-3.511 21.87,1.989 9.54,5.511 15.2,13.55 12.66,17.953 -2.54,4.398 -12.33,3.519 -21.87,-1.992 z m 196.06,102.56 v 0 c -2.55,4.4 -8.18,5.91 -12.59,3.37 l -103.7,-59.88 c -4.4,-2.539 -5.92,-8.172 -3.37,-12.582 v 0 c 2.54,-4.398 8.18,-5.906 12.58,-3.367 l 103.71,59.871 c 4.4,2.548 5.91,8.178 3.37,12.588 z m -1643.13,1336.08 -91.06,157.72 c -2.87,4.97 -9.23,6.67 -14.2,3.8 v 0 c -4.97,-2.87 -6.68,-9.22 -3.81,-14.2 l 91.06,-157.72 c 2.87,-4.97 9.23,-6.67 14.2,-3.8 v 0 c 4.98,2.87 6.68,9.23 3.81,14.2 z m -129.89,204.17 v 0 c -4.97,-2.87 -11.33,-1.16 -14.2,3.81 l -91.06,157.72 c -2.87,4.97 -1.17,11.33 3.81,14.2 v 0 c 4.97,2.87 11.33,1.17 14.2,-3.81 l 91.06,-157.71 c 2.87,-4.97 1.17,-11.33 -3.81,-14.21"
         style="fill:#3251aa;fill-opacity:1;fill-rule:nonzero;stroke:none"
         id="path36" /><path
         d="m 2768.86,3308.98 c 0,0 -18.66,-6.89 -49.52,-12.52 1.88,-22.69 0.56,-36.42 0.56,-36.42 l 48.96,48.94"
         style="fill:#2b254e;fill-opacity:1;fill-rule:nonzero;stroke:none"
         id="path38" /><path
         d="m 2707.73,3360.88 c -15.53,56.36 -49.67,128.29 -123.94,194.14 -151.85,134.67 -335.34,-74.83 -174.77,-191.96 66.27,-48.34 135.45,-67.17 195.27,-72.22 -84.32,-26.35 -205.66,-75.65 -188.99,-137.64 20,-74.36 175.14,50.89 238.76,106.15 5.49,41.2 25.72,73.55 53.67,101.53"
         style="fill:#252120;fill-opacity:1;fill-rule:nonzero;stroke:none"
         id="path40" /><path
         d="m 2685.26,1960.12 -503.18,39.06 c -35.52,53.35 -19.98,121.8 3.53,181.42 23.52,59.62 56.12,118.63 54.99,182.72 -1.4,78.55 -53.22,147.41 -67.4,224.69 -15.35,83.66 15.69,171.08 68.19,238 22.74,28.98 51.28,61.11 81.97,81.83 31.58,21.31 67.51,35.24 98.65,58.2 62.07,45.74 114.61,104.46 152.6,171.59 39.5,69.79 63.69,148.21 110.42,213.38 80.54,112.28 228.1,172.2 364.12,147.86 136.02,-24.35 253.63,-131.75 290.21,-264.99 23.77,-86.57 15.2,-178.14 13.61,-267.89 -2.7,-152.75 16.88,-310.15 90.78,-443.86 l -758.49,-562.01"
         style="fill:#252120;fill-opacity:1;fill-rule:nonzero;stroke:none"
         id="path42" /><path
         d="m 3392.05,2644.92 -172.74,19.69 -440.88,-1.92 -248.64,-65.37 c 0.21,-155.05 189.73,-1206.26 189.73,-1206.26 l 843.36,99.42 c 0,0 -110.14,843.42 -170.83,1154.44"
         style="fill:#3251aa;fill-opacity:1;fill-rule:nonzero;stroke:none"
         id="path44" /><path
         d="m 2893.45,2690.67 -115.02,-27.99 c 0,0 223.34,-202.18 331.37,-168.51 108.03,33.66 109.51,170.44 109.51,170.44 l -85.39,7.45 -240.47,18.61"
         style="fill:#3251aa;fill-opacity:1;fill-rule:nonzero;stroke:none"
         id="path46" /><path
         d="m 2871.65,2685.37 -81.08,247.84 c 0,0 -129.05,-65.52 -155.16,43.74 -23.27,97.35 83.06,119.85 141.14,80.68 0,0 -140.91,331.61 153.46,400.59 294.37,68.99 354.22,-339.01 369.14,-437.69 26.3,-173.79 -86.96,-274.77 -176.06,-296.02 l 21.84,-105.76 c 0,0 19.48,-88.91 -67.09,-108.18 -157.4,-35.04 -206.19,174.8 -206.19,174.8"
         style="fill:#f57e9a;fill-opacity:1;fill-rule:nonzero;stroke:none"
         id="path48" /><path
         d="m 3183.45,3188.69 c 20.41,25.71 -65.37,35.4 -66.14,18.86 -0.77,-16.53 54.12,-34.01 66.14,-18.86"
         style="fill:#252120;fill-opacity:1;fill-rule:nonzero;stroke:none"
         id="path50" /><path
         d="m 2963.82,3169.77 c -3.84,-32.61 74.22,4.25 66.18,18.72 -8.04,14.47 -63.91,0.48 -66.18,-18.72"
         style="fill:#252120;fill-opacity:1;fill-rule:nonzero;stroke:none"
         id="path52" /><path
         d="m 2981.41,3088.74 c -0.04,-17.87 14.41,-32.39 32.28,-32.43 17.86,-0.04 32.38,14.41 32.42,32.27 0.04,17.87 -14.41,32.39 -32.27,32.43 -17.87,0.04 -32.39,-14.4 -32.43,-32.27"
         style="fill:#252120;fill-opacity:1;fill-rule:nonzero;stroke:none"
         id="path54" /><path
         d="m 3138.78,3112.5 c -0.04,-17.87 14.41,-32.38 32.27,-32.43 17.87,-0.04 32.39,14.41 32.44,32.28 0.04,17.86 -14.42,32.38 -32.28,32.43 -17.87,0.04 -32.39,-14.41 -32.43,-32.28"
         style="fill:#252120;fill-opacity:1;fill-rule:nonzero;stroke:none"
         id="path56" /><path
         d="m 2761.5,2976.79 c 0.52,0.01 1.04,0.07 1.59,0.19 3.99,0.91 6.49,4.89 5.58,8.89 -4.41,19.44 -18.62,36.24 -37.05,43.88 -18.44,7.63 -40.35,5.75 -57.22,-4.89 -3.46,-2.19 -4.5,-6.79 -2.33,-10.25 2.22,-3.46 6.8,-4.47 10.26,-2.33 12.87,8.14 29.55,9.57 43.61,3.76 14.06,-5.83 24.87,-18.64 28.25,-33.47 0.79,-3.46 3.89,-5.81 7.31,-5.78"
         style="fill:#2b254e;fill-opacity:1;fill-rule:nonzero;stroke:none"
         id="path58" /><path
         d="m 3123.09,2724.51 c -105.92,-19.38 -180.82,20.21 -180.82,20.21 0,0 50.33,-61.23 187.03,-50.31 l -6.21,30.1"
         style="fill:#d73b51;fill-opacity:1;fill-rule:nonzero;stroke:none"
         id="path60" /><path
         d="m 2974.37,2997.71 c -2.08,-12.91 -14.23,-21.67 -27.13,-19.59 -12.9,2.09 -21.67,14.23 -19.58,27.13 2.08,12.91 14.23,21.67 27.13,19.59 12.9,-2.09 21.67,-14.23 19.58,-27.13"
         style="fill:#f03b3f;fill-opacity:1;fill-rule:nonzero;stroke:none"
         id="path62" /><path
         d="m 3257.27,3017.35 c -2.08,-12.91 -14.23,-21.67 -27.14,-19.59 -12.9,2.09 -21.67,14.24 -19.58,27.14 2.09,12.9 14.23,21.67 27.14,19.58 12.9,-2.08 21.67,-14.23 19.58,-27.13"
         style="fill:#f03b3f;fill-opacity:1;fill-rule:nonzero;stroke:none"
         id="path64" /><path
         d="m 3204.49,3329.39 -268.54,-47.4 c 111.76,-47.32 233.07,-30.46 299.63,-14.7 -9.07,21.34 -19.37,42.28 -31.09,62.1"
         style="fill:#d73b51;fill-opacity:1;fill-rule:nonzero;stroke:none"
         id="path66" /><path
         d="m 2705.81,3237.86 c 0,0 17.11,194.13 229.38,239.04 212.27,44.91 330.83,-178.29 330.83,-178.29 -143.88,-59.07 -330.07,-16.62 -330.07,-16.62 4.12,-121.71 -86.97,-170.45 -86.97,-170.45 0,0 38.75,-203.05 22.67,-426.17 0,0 -196.84,139 -254.66,255.65 -57.82,116.65 88.82,296.84 88.82,296.84"
         style="fill:#252120;fill-opacity:1;fill-rule:nonzero;stroke:none"
         id="path68" /><path
         d="m 2016.5,3786.28 c 0,0 6.68,46.69 14.95,93.04 8.27,46.34 47.3,155.17 25.77,169.93 -21.53,14.75 -75.75,-114.16 -75.75,-114.16 0,0 -71.39,234.15 -100.4,236.75 -34.4,3.09 14.08,-154.08 14.08,-154.08 0,0 -82.88,157.92 -107.12,154.52 -24.24,-3.39 48.3,-161.01 48.3,-161.01 0,0 -104.98,151.51 -126.9,147.1 -21.91,-4.41 65.62,-157.14 65.62,-157.14 0,0 -87.78,125.17 -108.54,114.26 -20.76,-10.9 181.55,-383.53 181.55,-383.53 l 168.44,54.32"
         style="fill:#f57e9a;fill-opacity:1;fill-rule:nonzero;stroke:none"
         id="path70" /><path
         d="m 3012.65,2994.06 c 0,0 -29.59,-63.88 27.04,-87.43 56.63,-23.56 93.21,37.37 93.21,37.37 l -120.25,50.06"
         style="fill:#ffffff;fill-opacity:1;fill-rule:nonzero;stroke:none"
         id="path72" /><path
         d="m 2871.65,2685.37 -764.37,84.09 -15.52,1016.69 H 1760.8 c 0,0 -79.45,-1163.45 -10.44,-1239.28 69.02,-75.83 859.38,-316.16 859.38,-316.16 l 261.91,454.66"
         style="fill:#3251aa;fill-opacity:1;fill-rule:nonzero;stroke:none"
         id="path74" /><path
         d="m 3758.64,2861.29 c -27.72,46.64 -75.96,62.72 -85.61,43.42 -9.65,-19.29 34.04,-81.42 52.4,-122.72 18.36,-41.3 73.55,-223.59 73.55,-223.59 l 205.53,47.52 -14.15,126.26 -231.72,129.11"
         style="fill:#f57e9a;fill-opacity:1;fill-rule:nonzero;stroke:none"
         id="path76" /><path
         d="m 3392.05,2644.92 c 143.47,-22.41 504.04,-545.65 504.04,-545.65 l -137.77,470.11 302.35,62.36 c 0,0 318.02,-820.79 64.68,-1006.08 -253.34,-185.28 -733.3,497.96 -733.3,497.96 v 521.3"
         style="fill:#3251aa;fill-opacity:1;fill-rule:nonzero;stroke:none"
         id="path78" /><path
         d="m 4440.87,3397.98 c 26.77,-64.86 -4.1,-139.14 -68.96,-165.91 -64.86,-26.77 -139.14,4.11 -165.9,68.96 -26.78,64.86 4.1,139.14 68.95,165.91 64.85,26.77 139.13,-4.1 165.91,-68.96"
         style="fill:#f03b3f;fill-opacity:1;fill-rule:nonzero;stroke:none"
         id="path80" /><path
         d="m 4323.49,3476.54 c -16.19,0.01 -32.64,-3.04 -48.53,-9.6 -19.39,-8 -35.66,-20.32 -48.35,-35.29 26.88,-63.68 62.4,-123.72 105.69,-177.6 7.48,-9.31 15.45,-18.49 23.88,-27.18 5.28,1.42 10.54,3.06 15.73,5.2 38.92,16.07 65.47,49.29 74.8,87.27 -50.07,44.44 -92.16,97.9 -123.22,157.2"
         style="fill:#221515;fill-opacity:1;fill-rule:nonzero;stroke:none"
         id="path82" /><path
         d="m 3676.3,3176.19 -138.4,-90.57 53.06,-128.56 161.99,33.43 -76.65,185.7"
         style="fill:#f03b3f;fill-opacity:1;fill-rule:nonzero;stroke:none"
         id="path84" /><path
         d="m 3710.67,2959.99 c 0,0 48.23,-116.83 72.46,-175.55 24.24,-58.71 57.09,-103.82 100.36,-85.96 33.82,13.97 18.88,51.65 1.64,122.94 -16.85,69.64 -16.16,196.38 -16.16,196.38 l -158.3,-57.81"
         style="fill:#3251aa;fill-opacity:1;fill-rule:nonzero;stroke:none"
         id="path86" /><path
         d="m 3723.82,2928.12 147.52,6.23 c -2.56,45.64 -2.37,83.45 -2.37,83.45 l -158.3,-57.81 c 0,0 5.26,-12.74 13.15,-31.87"
         style="fill:#221515;fill-opacity:1;fill-rule:nonzero;stroke:none"
         id="path88" /><path
         d="m 3791.42,3290.85 -223.93,-146.52 85.86,-208 262.08,54.09 -124.01,300.43"
         style="fill:#fbc424;fill-opacity:1;fill-rule:nonzero;stroke:none"
         id="path90" /><path
         d="m 3791.42,3290.85 124.01,-300.43 652.76,-121.06 -399.48,967.75 -377.29,-546.26"
         style="fill:#f03b3f;fill-opacity:1;fill-rule:nonzero;stroke:none"
         id="path92" /><path
         d="m 4473.67,2886.88 44.1,-8.17 -378.2,916.21 -25.49,-36.91 359.59,-871.13"
         style="fill:#fcd13e;fill-opacity:1;fill-rule:nonzero;stroke:none"
         id="path94" /><path
         d="m 3933.46,2947.63 c -55.73,-3.64 -133.86,-121.71 -128.8,-145.83 5.06,-24.12 56.52,6.07 56.52,6.07 0,0 -22.52,-53.23 -5.63,-65.03 16.88,-11.8 37.79,13.93 37.79,13.93 0,0 -28.88,-56.9 -14.47,-71.4 14.4,-14.51 54.59,23.16 54.59,23.16 0,0 -13.34,-49.94 4.63,-56.33 17.96,-6.38 124.1,114.22 111.24,128.69 -12.88,14.48 -41.96,10.75 -41.96,10.75 0,0 35.52,63.26 16.22,77.72 -19.29,14.45 -40.2,-9.67 -40.2,-9.67 0,0 19.3,44.84 3.22,59.41 -16.08,14.56 -39.58,-11.17 -39.58,-11.17 0,0 5.6,40.96 -13.57,39.7"
         style="fill:#f57e9a;fill-opacity:1;fill-rule:nonzero;stroke:none"
         id="path96" /><path
         d="m 1930.82,3827.06 c -2.75,0 -5.36,1.63 -6.47,4.33 -17.22,41.72 -55.23,73.97 -99.19,84.18 -3.77,0.87 -6.12,4.63 -5.24,8.39 0.87,3.77 4.63,6.13 8.4,5.24 48.3,-11.21 90.05,-46.64 108.97,-92.47 1.47,-3.57 -0.23,-7.66 -3.8,-9.14 -0.88,-0.36 -1.78,-0.53 -2.67,-0.53"
         style="fill:#d73b51;fill-opacity:1;fill-rule:nonzero;stroke:none"
         id="path98" /><path
         d="m 3109.28,2999.88 c -1.55,0 -3.2,0.1 -4.97,0.31 -3.84,0.46 -6.57,3.96 -6.1,7.79 0.47,3.84 3.96,6.51 7.79,6.11 8.42,-1.02 10.21,1.76 10.79,2.68 8.81,13.78 -16.38,67.1 -37.07,100.56 -2.04,3.29 -1.02,7.6 2.27,9.63 3.28,2.01 7.6,1.03 9.63,-2.27 9.1,-14.7 53.64,-89.37 36.97,-115.46 -2.84,-4.44 -8.44,-9.35 -19.31,-9.35"
         style="fill:#d73b51;fill-opacity:1;fill-rule:nonzero;stroke:none"
         id="path100" /><path
         d="m 3058.12,2447.18 c -101.08,0 -183.81,57.14 -234.5,162.74 -1.67,3.48 -0.2,7.66 3.28,9.33 3.49,1.67 7.67,0.21 9.34,-3.28 51.49,-107.26 137.4,-162 241.83,-154.03 40.64,3.09 71.22,18.49 90.9,45.77 25.22,34.97 25.71,81.35 17.76,113.1 -0.93,3.75 1.35,7.55 5.1,8.49 3.75,0.95 7.54,-1.34 8.49,-5.09 11.28,-45.07 3.81,-91.69 -20,-124.69 -21.89,-30.35 -56.88,-48.17 -101.19,-51.54 -7.08,-0.54 -14.09,-0.8 -21.01,-0.8"
         style="fill:#252120;fill-opacity:1;fill-rule:nonzero;stroke:none"
         id="path102" /><path
         d="m 3503.81,2011.19 c -1.96,0 -3.92,0.83 -5.3,2.43 -2.53,2.93 -2.2,7.36 0.73,9.88 129.64,111.71 -55.1,375.61 -56.98,378.26 -2.24,3.15 -1.49,7.53 1.66,9.76 3.15,2.23 7.52,1.49 9.76,-1.66 0.48,-0.68 48.83,-69.3 79.75,-151.45 41.62,-110.63 32.96,-195.52 -25.05,-245.52 -1.32,-1.14 -2.95,-1.7 -4.57,-1.7"
         style="fill:#252120;fill-opacity:1;fill-rule:nonzero;stroke:none"
         id="path104" /><path
         d="m 4532.82,3901.32 -48.82,2.46 c -122.87,6.19 -146.65,47.37 -155.6,62.88 -20.88,36.16 -8.49,82.41 27.67,103.29 26.43,15.26 58.25,12.75 81.61,-3.82 -2.68,28.51 11.06,57.32 37.49,72.58 36.16,20.88 82.41,8.48 103.29,-27.68 22.55,-39.06 10.4,-84.21 -2.71,-119.19 -9.07,-24.22 -19.48,-44.75 -20.64,-47.01 l -22.29,-43.51"
         style="fill:#f03b3f;fill-opacity:1;fill-rule:nonzero;stroke:none"
         id="path106" /><path
         d="m 4972.32,4071.82 -30.39,1.53 c -76.47,3.85 -91.28,29.48 -96.84,39.13 -13,22.51 -5.29,51.29 17.22,64.29 16.45,9.5 36.25,7.94 50.79,-2.38 -1.66,17.75 6.89,35.68 23.34,45.18 22.51,12.99 51.28,5.28 64.28,-17.23 14.04,-24.31 6.48,-52.41 -1.68,-74.19 -5.64,-15.07 -12.13,-27.84 -12.85,-29.26 l -13.87,-27.07"
         style="fill:#f03b3f;fill-opacity:1;fill-rule:nonzero;stroke:none"
         id="path108" /><path
         d="m 4910.61,3570.5 -71.32,3.59 c -179.51,9.04 -214.23,69.2 -227.32,91.85 -30.5,52.83 -12.39,120.39 40.43,150.89 38.61,22.29 85.09,18.62 119.21,-5.58 -3.91,41.66 16.16,83.74 54.77,106.02 52.83,30.5 120.39,12.4 150.89,-40.43 32.93,-57.05 15.19,-123.02 -3.95,-174.11 -13.25,-35.39 -28.48,-65.37 -30.17,-68.67 l -32.54,-63.56"
         style="fill:#f03b3f;fill-opacity:1;fill-rule:nonzero;stroke:none"
         id="path110" /><path
         d="M 6343.22,1740.09 5015.73,973.66 4249.31,2301.15 5576.8,3067.58 6343.22,1740.09"
         style="fill:#c3dcf3;fill-opacity:1;fill-rule:nonzero;stroke:none"
         id="path112" /><path
         d="m 6120.96,1948.03 -1174.17,-677.91 -410.93,711.74 1174.18,677.91 410.92,-711.74"
         style="fill:#fcfcfe;fill-opacity:1;fill-rule:nonzero;stroke:none"
         id="path114" /><path
         d="m 5124.25,1138.54 -27.07,1.36 c -68.15,3.43 -81.33,26.27 -86.29,34.87 -11.58,20.05 -4.71,45.7 15.34,57.28 14.66,8.46 32.3,7.07 45.25,-2.12 -1.48,15.81 6.14,31.79 20.8,40.25 20.05,11.58 45.7,4.7 57.27,-15.35 12.51,-21.66 5.77,-46.7 -1.49,-66.1 -5.03,-13.43 -10.81,-24.81 -11.46,-26.06 l -12.35,-24.13"
         style="fill:#f03b3f;fill-opacity:1;fill-rule:nonzero;stroke:none"
         id="path116" /><path
         d="m 5344.2,1297.92 c 1.99,13.27 -0.1,26.75 -6.96,38.63 -17.95,31.1 -61.49,39.55 -97.25,18.91 -35.76,-20.65 -50.21,-62.59 -32.26,-93.67 17.95,-31.09 61.49,-39.55 97.25,-18.91 14.61,8.44 25.59,20.45 32.32,33.8 l 25.23,2.79 c 2.49,0.28 3.3,3.5 1.24,4.92 l -19.57,13.53"
         style="fill:#ffffff;fill-opacity:1;fill-rule:nonzero;stroke:none"
         id="path118" /><path
         d="m 4646.78,2285.36 c 34.22,-59.27 13.91,-135.04 -45.35,-169.26 -59.26,-34.21 -135.03,-13.9 -169.25,45.36 -34.21,59.26 -13.91,135.03 45.35,169.25 59.26,34.21 135.04,13.91 169.25,-45.35"
         style="fill:#7dd08f;fill-opacity:1;fill-rule:nonzero;stroke:none"
         id="path120" /><path
         d="m 4939.63,2455.33 -202.78,-117.07 c -10.58,-6.1 -24.1,-2.48 -30.2,8.09 v 0 c -6.1,10.57 -2.48,24.09 8.09,30.2 l 202.78,117.07 c 10.58,6.11 24.09,2.48 30.19,-8.08 v 0 c 6.11,-10.58 2.49,-24.1 -8.08,-30.21"
         style="fill:#ffffff;fill-opacity:1;fill-rule:nonzero;stroke:none"
         id="path122" /><path
         d="M 5244.77,2500.66 4801.44,2244.7 c -14.96,-8.64 -34.08,-3.51 -42.71,11.44 v 0 c -8.63,14.95 -3.51,34.07 11.45,42.71 l 443.34,255.96 c 14.95,8.63 34.07,3.51 42.7,-11.44 v 0 c 8.63,-14.96 3.52,-34.08 -11.45,-42.71"
         style="fill:#ffffff;fill-opacity:1;fill-rule:nonzero;stroke:none"
         id="path124" /><path
         d="m 6222.3,1772.5 -65.43,13.33 -21.16,-63.32 -60.35,104.52 86.59,49.99 60.35,-104.52"
         style="fill:#ffffff;fill-opacity:1;fill-rule:nonzero;stroke:none"
         id="path126" /><path
         d="m 5472.57,2849.15 c 72.72,0 140.98,18.97 200.24,52.12 l -96.01,166.31 -296.03,-170.91 c 57.27,-30.29 122.51,-47.52 191.8,-47.52"
         style="fill:#252120;fill-opacity:1;fill-rule:nonzero;stroke:none"
         id="path128" /><path
         d="m 5850.69,3289.6 c 0,-226.87 -183.91,-410.79 -410.78,-410.79 -226.87,0 -410.79,183.92 -410.79,410.79 0,226.87 183.92,410.79 410.79,410.79 226.87,0 410.78,-183.92 410.78,-410.79"
         style="fill:#fcd13e;fill-opacity:1;fill-rule:nonzero;stroke:none"
         id="path130" /><path
         d="m 5302.75,3540.25 157.86,-105.41 176.33,70.29 -51.46,-182.71 121.33,-145.98 -189.67,-7.51 -101.34,-160.51 -65.76,178.07 -183.97,46.78 149.04,117.56 -12.36,189.42"
         style="fill:#fefffe;fill-opacity:1;fill-rule:nonzero;stroke:none"
         id="path132" /><path
         d="m 1139.82,2005.6 c -56.22,97.38 -22.85,221.9 74.53,278.13 97.38,56.22 221.91,22.86 278.14,-74.53 56.22,-97.38 22.85,-221.91 -74.53,-278.13 -97.38,-56.23 -221.91,-22.86 -278.14,74.53"
         style="fill:#7dd08f;fill-opacity:1;fill-rule:nonzero;stroke:none"
         id="path134" /><path
         d="m 1401.64,2128.83 c 11.57,6.68 15.53,21.47 8.85,33.04 -6.67,11.57 -21.47,15.53 -33.03,8.85 -11.58,-6.68 -15.54,-21.47 -8.86,-33.04 6.68,-11.57 21.47,-15.53 33.04,-8.85 z m -170.98,-42.85 c -11.56,-6.68 -15.53,-21.48 -8.85,-33.05 6.68,-11.56 21.48,-15.53 33.04,-8.85 11.57,6.68 15.54,21.47 8.86,33.04 -6.68,11.57 -21.47,15.54 -33.05,8.86 z m 106.44,33.51 c 6.68,-11.57 2.71,-26.36 -8.85,-33.03 -11.57,-6.68 -26.37,-2.72 -33.04,8.84 -6.68,11.57 -2.72,26.37 8.85,33.05 11.57,6.68 26.36,2.71 33.04,-8.86"
         style="fill:#ffffff;fill-opacity:1;fill-rule:nonzero;stroke:none"
         id="path136" /><path
         d="m 3521.64,4475.15 c -229.8,0 -416.08,-186.28 -416.08,-416.08 0,-168.66 100.42,-313.78 244.68,-379.11 l -20.88,-162.95 113.77,133.49 c 25.43,-4.86 51.65,-7.5 78.51,-7.5 229.79,0 416.07,186.28 416.07,416.07 0,229.8 -186.28,416.08 -416.07,416.08"
         style="fill:#7dd08f;fill-opacity:1;fill-rule:nonzero;stroke:none"
         id="path138" /><path
         d="m 3575.44,3854.92 c -1.83,7.03 -1.89,14.25 -0.11,21.72 1.77,7.44 5.56,14.59 11.37,21.45 5.81,6.87 13.92,12.85 24.35,17.98 8.66,4.47 16.77,6.93 24.34,7.4 7.56,0.45 14.25,-0.49 20.06,-2.77 5.82,-2.3 10.66,-5.47 14.52,-9.49 3.86,-4.06 6.68,-8.11 8.44,-12.15 1.32,-3.06 2.32,-7.19 3.03,-12.41 0.71,-5.25 0.65,-10.68 -0.14,-16.32 -0.81,-5.67 -2.6,-11.5 -5.4,-17.53 -2.81,-6.03 -7.07,-11.61 -12.79,-16.74 -11.99,-11.23 -25.32,-17.31 -39.96,-18.24 -14.64,-0.95 -27.3,5.07 -37.99,18.01 -4.63,5.69 -7.87,12.06 -9.72,19.09 z m -97.72,421.28 c 6.02,-3.29 10.99,-9.5 14.96,-18.62 10.72,-25.57 21.76,-51.34 33.09,-77.31 11.32,-25.97 22.68,-51.46 34.07,-76.44 11.38,-24.98 22.65,-48.79 33.78,-71.4 11.15,-22.63 21.76,-43.49 31.86,-62.6 3.59,-6.63 4.61,-11.81 3.05,-15.56 -1.57,-3.76 -6.04,-7.53 -13.42,-11.34 -8.46,-5.22 -16.61,-9.6 -24.47,-13.14 -7.86,-3.52 -15.92,-6.44 -24.23,-8.7 -8.77,-2.25 -15.82,-2.35 -21.16,-0.33 -5.33,2.01 -10.73,7.38 -16.2,16.08 -11.44,16.95 -24.44,37.32 -38.97,61.12 -14.56,23.79 -29.15,48.58 -43.84,74.38 -14.68,25.79 -29,51.43 -42.94,76.92 -13.97,25.5 -26.2,48.55 -36.69,69.16 -5.15,9.92 -6.54,17.6 -4.13,23.04 2.39,5.43 9.04,10.45 19.93,15.06 9.66,4.92 20.85,9.57 33.59,13.95 12.72,4.37 24.57,7.25 35.54,8.66 11.45,1.34 20.17,0.36 26.18,-2.93"
         style="fill:#ffffff;fill-opacity:1;fill-rule:nonzero;stroke:none"
         id="path140" /><path
         d="m 6317.25,2839.57 c 0,-118.02 -95.68,-213.7 -213.7,-213.7 -118.01,0 -213.69,95.68 -213.69,213.7 0,118.02 95.68,213.69 213.69,213.69 118.02,0 213.7,-95.67 213.7,-213.69"
         style="fill:#7dd08f;fill-opacity:1;fill-rule:nonzero;stroke:none"
         id="path142" /><path
         d="m 6161.38,2842.27 c -0.88,-2.11 -1.55,-4.69 -2.02,-7.8 -0.45,-3.1 -0.63,-6.42 -0.52,-9.93 0.11,-3.52 0.5,-6.84 1.14,-9.99 0.64,-4.3 1.48,-8.14 2.53,-11.54 1.05,-3.4 2.27,-6.46 3.65,-9.15 2.5,-4.9 5.31,-7.03 8.46,-6.39 2.75,0.42 4.59,3.23 5.51,8.44 0.92,5.19 0.5,12.05 -1.23,20.55 -0.47,3.41 -1.28,6.9 -2.44,10.5 -1.15,3.57 -2.4,6.78 -3.78,9.57 -1.35,2.8 -2.77,5.03 -4.22,6.69 -1.47,1.68 -2.75,2.42 -3.84,2.29 -1.29,-0.07 -2.37,-1.15 -3.24,-3.24 z m 32.94,4.49 c 1.38,-2.28 2.69,-4.73 3.88,-7.38 1.85,-3.79 3.36,-7.7 4.54,-11.76 1.19,-4.08 1.96,-8.23 2.3,-12.45 0.36,-4.21 0.23,-8.42 -0.36,-12.59 -0.59,-4.19 -1.81,-8.15 -3.66,-11.88 -3.66,-6.95 -9.18,-11.81 -16.6,-14.59 -2.97,-1.22 -5.93,-2.22 -8.9,-3 -2.95,-0.81 -5.86,-1.18 -8.7,-1.17 -4.28,-0.12 -8.3,0.93 -12.09,3.16 -3.79,2.22 -7.17,5.26 -10.11,9.06 -2.95,3.81 -5.37,8.28 -7.27,13.45 -1.9,5.17 -3.18,10.56 -3.83,16.18 -0.67,5.63 -0.58,11.34 0.23,17.17 0.81,5.79 2.55,11.3 5.22,16.52 1.46,2.67 3.58,5.2 6.39,7.57 2.81,2.36 5.57,4.09 8.29,5.15 3.56,1.06 7.24,1.82 11.08,2.27 3.82,0.45 7,0.49 9.55,0.14 3.53,-0.64 6.61,-1.78 9.24,-3.43 2.62,-1.66 4.78,-3.67 6.47,-6.02 1.48,-1.98 2.93,-4.13 4.33,-6.4 z m -162.55,28.16 c -0.71,-2.24 -1.14,-5.03 -1.29,-8.36 -0.16,-3.37 -0.01,-6.94 0.45,-10.75 0.46,-3.84 1.14,-7.4 2.05,-10.73 2.94,-9.12 6.23,-16.42 9.86,-21.82 3.62,-5.41 7,-7.81 10.14,-7.15 3.2,0.49 5.06,3.5 5.57,8.96 0.51,5.47 -0.81,12.96 -3.97,22.49 -1.47,3.97 -3.03,7.84 -4.68,11.56 -1.64,3.72 -3.36,6.99 -5.14,9.8 -1.66,2.87 -3.33,5.25 -4.99,7.12 -1.67,1.88 -3.34,2.66 -5,2.36 -1.29,-0.08 -2.3,-1.23 -3,-3.48 z m 103.94,18.72 c -1.96,-10.31 -3.99,-21.24 -6.09,-32.8 -2.1,-11.54 -4.16,-23.42 -6.21,-35.62 -2.06,-12.19 -3.93,-23.84 -5.64,-34.9 -1.69,-11.07 -3.13,-21.3 -4.3,-30.66 -1.2,-9.35 -2.01,-16.99 -2.43,-22.91 -0.68,-2.56 -1.61,-4.07 -2.78,-4.49 -1.17,-0.42 -3.19,-0.63 -6.03,-0.61 -5.23,0.66 -9.33,2.22 -12.32,4.66 -3,2.44 -4.44,7.03 -4.32,13.77 0.43,6.76 1.21,15.67 2.32,26.75 1.11,11.07 2.53,23.15 4.23,36.24 1.71,13.07 3.58,26.66 5.61,40.77 2.04,14.1 4.19,27.57 6.47,40.39 -3.54,-5.71 -7.94,-10.46 -13.19,-14.24 -5.24,-3.78 -11,-6.31 -17.25,-7.59 2.3,-4.01 4.38,-8.27 6.25,-12.78 1.85,-4.51 3.25,-9.1 4.18,-13.73 0.92,-4.64 1.33,-9.25 1.2,-13.81 -0.1,-4.58 -1.01,-8.87 -2.72,-12.84 -3.44,-7.34 -9.23,-12.76 -17.37,-16.29 -3,-0.89 -6.16,-1.75 -9.5,-2.62 -3.36,-0.84 -6.62,-1.26 -9.79,-1.24 -2.6,0.15 -5.4,0.66 -8.39,1.51 -3,0.86 -5.8,1.96 -8.4,3.29 -5.42,3.03 -10.21,7.5 -14.35,13.36 -4.15,5.87 -7.32,12.42 -9.57,19.62 -2.24,7.22 -3.4,14.69 -3.45,22.43 -0.04,7.73 1.25,14.94 3.9,21.65 1.32,2.91 3.37,5.66 6.16,8.18 2.8,2.52 5.59,4.27 8.37,5.22 4.52,1.43 8.76,2.32 12.72,2.69 3.96,0.37 7.57,0.34 10.84,-0.11 3.29,-1.11 7.83,-2.91 13.61,-5.41 6.85,-2.89 14.08,-2.56 21.7,1.02 3.14,1.47 6.43,3.72 9.88,6.7 3.45,2.99 6.72,6.59 9.8,10.79 3.08,4.19 5.91,8.91 8.46,14.16 2.57,5.23 4.54,10.74 5.87,16.51 1.22,6.54 5.09,8.36 11.61,5.45 5.96,-2.21 10.51,-5.39 13.64,-9.51 3.12,-4.14 3.98,-9.59 2.58,-16.41 -1.56,-7.4 -3.33,-16.27 -5.3,-26.59"
         style="fill:#ffffff;fill-opacity:1;fill-rule:nonzero;stroke:none"
         id="path144" /><path
         d="m 6009.57,2140.97 -225.08,-387.2 336.47,194.26 z m -1083.17,66.36 -261.24,-449.41 190.17,-329.39 645.51,1110.45 z m 462.34,-682.05 -212.83,-122.88 632.18,1087.53 70.45,-122.04 -489.8,-842.61"
         style="fill:#ffffff;fill-opacity:1;fill-rule:nonzero;stroke:none"
         id="path146" /><path
         d="m 2369.12,1157.46 c 26.3,61.69 40.89,129.57 40.89,200.87 0,262.1 -196.75,478.11 -450.59,508.74 l 409.7,-709.61"
         style="fill:#252120;fill-opacity:1;fill-rule:nonzero;stroke:none"
         id="path148" /><path
         d="m 2387.94,1392.61 c 0,-283.11 -229.5,-512.61 -512.61,-512.61 -283.1,0 -512.61,229.5 -512.61,512.61 0,283.1 229.51,512.6 512.61,512.6 283.11,0 512.61,-229.5 512.61,-512.6"
         style="fill:#f03b3f;fill-opacity:1;fill-rule:nonzero;stroke:none"
         id="path150" /><path
         d="m 2020.24,1158.64 -96.89,4.89 c -243.86,12.27 -291.05,94 -308.82,124.78 -41.43,71.77 -16.84,163.56 54.93,204.99 52.44,30.28 115.59,25.3 161.95,-7.58 -5.31,56.59 21.96,113.76 74.41,144.05 71.76,41.43 163.55,16.83 204.99,-54.94 44.75,-77.51 20.64,-167.12 -5.37,-236.54 -18,-48.08 -38.68,-88.81 -40.98,-93.3 l -44.22,-86.35"
         style="fill:#ffffff;fill-opacity:1;fill-rule:nonzero;stroke:none"
         id="path152" /><path
         d="m 4674.07,1565.43 304.02,-526.56 c 9.85,36.01 15.21,73.87 15.21,113.01 0,198.67 -135.57,365.65 -319.23,413.55"
         style="fill:#252120;fill-opacity:1;fill-rule:nonzero;stroke:none"
         id="path154" /><path
         d="m 4971.86,1185.31 c 0,-236.04 -191.34,-427.388 -427.38,-427.388 -236.04,0 -427.39,191.348 -427.39,427.388 0,236.04 191.35,427.39 427.39,427.39 236.04,0 427.38,-191.35 427.38,-427.39"
         style="fill:#fcd13e;fill-opacity:1;fill-rule:nonzero;stroke:none"
         id="path156" /><path
         d="m 4390.86,1352.15 c -8.75,16.18 -15.64,29.96 -20.68,41.37 -6.37,16.43 0.14,26.38 19.49,29.82 15.11,2.92 29.5,2.19 43.15,-2.19 13.66,-4.37 25.26,-14.25 34.81,-29.63 3.98,-6.63 8.41,-13.84 13.33,-21.68 4.89,-7.82 9.46,-15.71 13.72,-23.66 8.75,2.39 19.22,4.11 31.42,5.18 16.18,0.79 28.69,-1.54 37.58,-6.97 8.88,-5.43 16.25,-11.34 22.09,-17.69 4.49,-5.05 9.34,-11.08 14.5,-18.11 5.18,-7.03 10.16,-14.25 14.93,-21.68 4.76,-7.42 8.95,-14.79 12.53,-22.07 3.58,-7.28 6.42,-13.86 8.56,-19.69 2.37,-11.41 -1.88,-19.62 -12.74,-24.66 -7.69,-3.45 -15.26,-6.1 -22.68,-7.95 -7.42,-1.87 -14.51,-2.72 -21.28,-2.59 -6.76,0.13 -13.13,1.59 -19.08,4.38 -5.97,2.78 -11.49,7.23 -16.52,13.34 -4.5,6.61 -9.95,14.3 -16.3,23.05 -6.36,8.75 -12.87,15.39 -19.49,19.88 -3.19,3.19 -6.23,4.37 -9.15,3.6 -3.71,-1.6 -6.55,-5.52 -8.54,-11.74 -2,-6.24 -3.19,-13.41 -3.6,-21.47 -0.39,-8.11 0.35,-16.65 2.2,-25.67 1.86,-9.02 4.97,-17.28 9.35,-24.86 4.37,-7.56 10.2,-13.79 17.5,-18.68 7.29,-4.91 16.24,-7.11 26.84,-6.57 16.98,1.6 34.28,4.83 51.91,9.74 17.62,4.91 34.33,8.49 50.11,10.73 15.78,2.27 29.83,1.72 42.16,-1.58 12.36,-3.32 21.84,-12.27 28.45,-26.84 1.85,-6.64 3.45,-14.34 4.76,-23.08 1.33,-8.76 1.27,-18.1 -0.19,-28.04 -1.46,-9.95 -4.77,-20.29 -9.94,-31.01 -5.17,-10.76 -13.2,-21.56 -24.07,-32.42 l -5.17,-5.17 c -2.92,-2.93 -4.64,-4.39 -5.18,-4.39 6.11,-10.86 12.67,-21.94 19.7,-33.201 7.02,-11.289 13.32,-21.019 18.9,-29.25 3.45,-5.551 4.23,-9.937 2.37,-13.117 -1.85,-3.184 -6.77,-6.102 -14.72,-8.75 -13.78,-4.773 -26.9,-4.383 -39.37,1.199 -12.45,5.559 -23.19,13.379 -32.21,23.457 -3.45,3.981 -6.56,7.621 -9.34,10.942 -2.79,3.3 -5.25,7.082 -7.36,11.332 -10.61,-3.711 -21.48,-6.903 -32.63,-9.543 -11.14,-2.66 -23.19,-3.848 -36.19,-3.571 -16.97,0 -27.17,1.723 -30.62,5.161 -4.25,3.711 -5.83,8.75 -4.78,15.121 1.33,5.04 3.65,10.01 6.96,14.91 3.33,4.91 7.17,9.27 11.54,13.13 4.38,3.84 9.21,7.09 14.51,9.75 5.31,2.65 10.61,4.5 15.91,5.56 12.73,3.7 24.47,7.88 35.22,12.53 10.73,4.63 20,9.54 27.83,14.71 7.82,5.17 13.92,10.21 18.3,15.11 4.37,4.91 6.7,9.62 6.95,14.12 0.54,5.83 -3.17,8.36 -11.14,7.57 -7.95,-0.8 -18.28,-3.05 -31.02,-6.77 -12.73,-3.72 -26.84,-7.76 -42.36,-12.13 -15.51,-4.38 -30.57,-7.49 -45.14,-9.35 -20.15,-2.64 -39.43,-0.72 -57.87,5.76 -18.45,6.52 -33.75,19.57 -45.95,39.19 -9.27,19.35 -15.97,41.7 -20.08,67.02 -4.11,25.33 -2.84,50.58 3.78,75.78 1.6,5.82 3.97,11.65 7.15,17.49 3.2,5.83 7.3,11.54 12.33,17.1 -8.21,15.65 -16.7,31.56 -25.45,47.74"
         style="fill:#ffffff;fill-opacity:1;fill-rule:nonzero;stroke:none"
         id="path158" /><path
         d="m 5479.39,460.492 c 0,40.379 -774.27,73.11 -1729.39,73.11 -955.12,0 -1729.39,-32.731 -1729.39,-73.11 0,-40.383 774.27,-73.121 1729.39,-73.121 955.12,0 1729.39,32.738 1729.39,73.121"
         style="fill:#ebe9f3;fill-opacity:1;fill-rule:nonzero;stroke:none"
         id="path160" /><path
         d="m 1376.33,854.762 c 0,-6.352 -5.13,-11.492 -11.48,-11.492 h -103.2 c -6.36,0 -11.49,5.14 -11.49,11.492 v 91.718 h -91.71 c -6.35,0 -11.49,5.141 -11.49,11.489 v 91.711 h -91.72 c -6.35,0 -11.48,5.13 -11.48,11.48 v 103.21 c 0,6.34 5.13,11.48 11.48,11.48 6.35,0 11.48,-5.14 11.48,-11.48 v -91.72 h 91.73 c 6.34,0 11.48,-5.14 11.48,-11.49 v -91.711 h 91.72 c 6.34,0 11.48,-5.129 11.48,-11.48 v -91.731 h 91.72 c 6.35,0 11.48,-5.136 11.48,-11.476"
         style="fill:#c0ddf4;fill-opacity:1;fill-rule:nonzero;stroke:none"
         id="path162" /><path
         d="m 6052.14,3878.34 c 19.45,19.44 53.36,19.44 72.8,0 29.03,-29.03 76.28,-29.03 105.28,0 19.45,19.44 53.36,19.44 72.81,0 4.49,-4.49 11.75,-4.49 16.24,0 4.49,4.48 4.49,11.75 0,16.24 -28.14,28.13 -77.19,28.11 -105.29,0 -20.06,-20.05 -52.72,-20.05 -72.8,0 -28.1,28.11 -77.16,28.13 -105.27,0 -19.46,-19.46 -53.35,-19.44 -72.81,0 -4.48,4.48 -11.74,4.48 -16.23,0 -4.49,-4.49 -4.49,-11.76 0,-16.24 14.06,-14.07 32.75,-21.8 52.64,-21.8 19.88,0 38.58,7.73 52.63,21.8 z m -52.63,94.79 c -19.89,0 -38.58,7.74 -52.64,21.8 -4.49,4.49 -4.49,11.76 0,16.24 4.49,4.49 11.75,4.49 16.23,0 19.46,-19.43 53.35,-19.46 72.81,0 28.11,28.14 77.17,28.12 105.27,0 20.09,-20.06 52.75,-20.04 72.8,0 28.1,28.12 77.15,28.14 105.29,0 4.49,-4.48 4.49,-11.75 0,-16.24 -4.49,-4.48 -11.75,-4.48 -16.24,0 -19.45,19.45 -53.36,19.45 -72.81,0 -29,-29.03 -76.25,-29.03 -105.28,0 -19.44,19.45 -53.35,19.45 -72.8,0 -14.05,-14.06 -32.75,-21.8 -52.63,-21.8"
         style="fill:#c0ddf4;fill-opacity:1;fill-rule:nonzero;stroke:none"
         id="path164" /><path
         d="m 900.699,2771.94 70.125,-70.13 70.126,70.13 -70.126,70.13 z m 70.125,-97.86 c -3.051,0 -5.965,1.21 -8.121,3.37 l -86.359,86.37 c -4.485,4.49 -4.485,11.75 0,16.24 l 86.359,86.36 c 4.488,4.49 11.754,4.49 16.242,0 l 86.365,-86.36 c 4.48,-4.49 4.48,-11.75 0,-16.24 l -86.365,-86.37 c -2.152,-2.16 -5.066,-3.37 -8.121,-3.37"
         style="fill:#c0ddf4;fill-opacity:1;fill-rule:nonzero;stroke:none"
         id="path166" /><path
         d="m 5315.35,4099.26 h 99.17 v 99.17 h -99.17 z m 110.66,-22.97 h -122.14 c -6.35,0 -11.48,5.15 -11.48,11.49 v 122.14 c 0,6.35 5.13,11.48 11.48,11.48 h 122.14 c 6.34,0 11.48,-5.13 11.48,-11.48 v -122.14 c 0,-6.34 -5.14,-11.49 -11.48,-11.49"
         style="fill:#c0ddf4;fill-opacity:1;fill-rule:nonzero;stroke:none"
         id="path168" /><path
         d="m 3871.33,950.879 c -27.35,0 -49.58,-22.25 -49.58,-49.59 0,-27.34 22.23,-49.578 49.58,-49.578 27.34,0 49.59,22.238 49.59,49.578 0,27.34 -22.25,49.59 -49.59,49.59 z m 0,-122.141 c -40,0 -72.55,32.543 -72.55,72.551 0,40.012 32.55,72.563 72.55,72.563 40.01,0 72.56,-32.551 72.56,-72.563 0,-40.008 -32.55,-72.551 -72.56,-72.551"
         style="fill:#c0ddf4;fill-opacity:1;fill-rule:nonzero;stroke:none"
         id="path170" /><path
         d="m 5912.6,1113.3 c -27.34,0 -49.58,-22.24 -49.58,-49.58 0,-27.34 22.24,-49.59 49.58,-49.59 27.34,0 49.58,22.25 49.58,49.59 0,27.34 -22.24,49.58 -49.58,49.58 z m 0,-122.14 c -40.01,0 -72.55,32.55 -72.55,72.56 0,40 32.54,72.55 72.55,72.55 40.01,0 72.55,-32.55 72.55,-72.55 0,-40.01 -32.54,-72.56 -72.55,-72.56"
         style="fill:#c0ddf4;fill-opacity:1;fill-rule:nonzero;stroke:none"
         id="path172" /><path
         d="m 6238.95,2385.52 h 89.77 l -44.88,77.75 z m 109.67,-22.96 h -129.56 c -4.11,0 -7.9,2.19 -9.95,5.74 -2.05,3.55 -2.05,7.92 0,11.49 l 64.78,112.19 c 4.1,7.11 15.79,7.11 19.89,0 l 64.78,-112.19 c 2.06,-3.57 2.06,-7.94 0,-11.49 -2.05,-3.55 -5.84,-5.74 -9.94,-5.74"
         style="fill:#c0ddf4;fill-opacity:1;fill-rule:nonzero;stroke:none"
         id="path174" /><path
         d="m 1312.95,3745.9 31.82,31.82 c 4.49,4.49 4.49,11.75 0,16.24 -4.49,4.48 -11.75,4.48 -16.24,0 l -31.82,-31.82 -31.82,31.82 c -4.48,4.48 -11.76,4.48 -16.24,0 -4.48,-4.49 -4.48,-11.75 0,-16.24 l 31.82,-31.82 -31.82,-31.81 c -4.48,-4.49 -4.48,-11.75 0,-16.24 2.24,-2.24 5.18,-3.36 8.12,-3.36 2.94,0 5.88,1.12 8.12,3.36 l 31.82,31.82 31.82,-31.82 c 2.25,-2.24 5.18,-3.36 8.12,-3.36 2.94,0 5.88,1.12 8.12,3.36 4.49,4.49 4.49,11.75 0,16.24 z m -131.13,48.06 c -4.48,4.48 -11.75,4.48 -16.23,0 l -31.82,-31.82 -31.82,31.82 c -4.48,4.48 -11.75,4.48 -16.23,0 -4.49,-4.49 -4.49,-11.75 0,-16.24 l 31.81,-31.82 -31.81,-31.81 c -4.49,-4.49 -4.49,-11.75 0,-16.24 2.24,-2.24 5.18,-3.36 8.12,-3.36 2.94,0 5.87,1.12 8.11,3.36 l 31.82,31.82 31.82,-31.82 c 2.24,-2.24 5.18,-3.36 8.12,-3.36 2.93,0 5.87,1.12 8.11,3.36 4.49,4.49 4.49,11.75 0,16.24 l -31.81,31.81 31.81,31.82 c 4.49,4.49 4.49,11.75 0,16.24 z m -162.94,-16.24 -31.814,-31.82 31.814,-31.81 c 4.48,-4.49 4.48,-11.75 0,-16.24 -2.24,-2.24 -5.18,-3.36 -8.12,-3.36 -2.94,0 -5.88,1.12 -8.12,3.36 l -31.816,31.82 -31.816,-31.82 c -2.238,-2.24 -5.18,-3.36 -8.117,-3.36 -2.942,0 -5.875,1.12 -8.121,3.36 -4.485,4.49 -4.485,11.75 0,16.24 l 31.816,31.81 -31.816,31.82 c -4.485,4.49 -4.485,11.75 0,16.24 4.488,4.48 11.757,4.48 16.238,0 l 31.816,-31.82 31.816,31.82 c 4.49,4.48 11.75,4.48 16.24,0 4.48,-4.49 4.48,-11.75 0,-16.24"
         style="fill:#c0ddf4;fill-opacity:1;fill-rule:nonzero;stroke:none"
         id="path176" /><path
         d="m 2951.77,3848.59 h -43.7 v 43.7 c 0,6.35 -5.13,11.48 -11.48,11.48 -6.35,0 -11.48,-5.13 -11.48,-11.48 v -43.7 h -43.69 c -6.35,0 -11.49,-5.14 -11.49,-11.49 0,-6.34 5.14,-11.48 11.49,-11.48 h 43.69 v -43.69 c 0,-6.34 5.13,-11.48 11.48,-11.48 6.35,0 11.48,5.14 11.48,11.48 v 43.69 h 43.7 c 6.34,0 11.48,5.14 11.48,11.48 0,6.35 -5.14,11.49 -11.48,11.49"
         style="fill:#c0ddf4;fill-opacity:1;fill-rule:nonzero;stroke:none"
         id="path178" /></g></g></svg>
