<svg height="512" viewBox="0 0 512 512" width="512" xmlns="http://www.w3.org/2000/svg" xmlns:xlink="http://www.w3.org/1999/xlink"><linearGradient id="New_Gradient_Swatch_11" gradientUnits="userSpaceOnUse" x1="60.556" x2="451.444" y1="367.444" y2="-23.444"><stop offset=".011" stop-color="#60c6be"/><stop offset="1" stop-color="#80d1cb"/></linearGradient><linearGradient id="New_Gradient_Swatch_10" gradientUnits="userSpaceOnUse" x1="209.996" x2="302.004" y1="182.86" y2="90.852"><stop offset=".015" stop-color="#bfe8e5"/><stop offset="1" stop-color="#dff4f2"/></linearGradient><linearGradient id="New_Gradient_Swatch_10-2" x1="342.263" x2="434.27" xlink:href="#New_Gradient_Swatch_10" y1="232.86" y2="140.852"/><linearGradient id="New_Gradient_Swatch_10-3" x1="77.73" x2="169.737" xlink:href="#New_Gradient_Swatch_10" y1="232.86" y2="140.852"/><linearGradient id="New_Gradient_Swatch_1" gradientUnits="userSpaceOnUse" x1="235.488" x2="300.512" y1="302.512" y2="237.488"><stop offset=".004" stop-color="#f1cccd"/><stop offset="1" stop-color="#faeeee"/></linearGradient><linearGradient id="New_Gradient_Swatch_4" gradientUnits="userSpaceOnUse" x1="211.035" x2="324.965" y1="442.006" y2="328.077"><stop offset=".011" stop-color="#cacad5"/><stop offset="1" stop-color="#ededf1"/></linearGradient><linearGradient id="New_Gradient_Swatch_3" gradientUnits="userSpaceOnUse" x1="234.851" x2="289.858" y1="280.592" y2="225.584"><stop offset=".011" stop-color="#606082"/><stop offset="1" stop-color="#83839e"/></linearGradient><g id="_13-rating" data-name="13-rating"><g id="gradient"><path d="m472 12h-432a36.04 36.04 0 0 0 -36 36v248a36.04 36.04 0 0 0 36 36h40.367l68.977 45.985a12 12 0 0 0 18.656-9.985v-36h304a36.04 36.04 0 0 0 36-36v-248a36.04 36.04 0 0 0 -36-36z" fill="url(#New_Gradient_Swatch_11)"/><path d="m313.811 105.552-35.891-3.008-13.95-33.244a8.644 8.644 0 0 0 -15.941.005l-13.949 33.239-35.891 3.008a8.648 8.648 0 0 0 -4.927 15.162l27.275 23.556-8.237 35.108a8.641 8.641 0 0 0 12.9 9.369l30.8-18.685 30.8 18.686a8.645 8.645 0 0 0 12.9-9.371l-8.236-35.107 27.274-23.555a8.648 8.648 0 0 0 -4.926-15.163z" fill="url(#New_Gradient_Swatch_10)"/><path d="m453.577 161.5a8.627 8.627 0 0 0 -7.5-5.947l-35.89-3.008-13.95-33.245a8.643 8.643 0 0 0 -15.94-.005l-13.949 33.243-35.891 3.008a8.648 8.648 0 0 0 -4.928 15.162l27.271 23.562-8.236 35.108a8.646 8.646 0 0 0 12.9 9.369l30.8-18.685 30.8 18.686a8.646 8.646 0 0 0 12.9-9.371l-8.237-35.107 27.277-23.557a8.63 8.63 0 0 0 2.573-9.213z" fill="url(#New_Gradient_Swatch_10-2)"/><path d="m181.544 155.552-35.89-3.008-13.954-33.244a8.643 8.643 0 0 0 -15.941 0l-13.95 33.243-35.89 3.008a8.648 8.648 0 0 0 -4.919 15.163l27.27 23.556-8.236 35.108a8.645 8.645 0 0 0 12.9 9.369l30.8-18.685 30.8 18.685a8.644 8.644 0 0 0 12.9-9.37l-8.234-35.107 27.275-23.556a8.648 8.648 0 0 0 -4.928-15.162z" fill="url(#New_Gradient_Swatch_10-3)"/><circle cx="268" cy="270" fill="url(#New_Gradient_Swatch_1)" r="46"/><path d="m300 318h-64a36.04 36.04 0 0 0 -36 36v72a12 12 0 0 0 12 12h112a12 12 0 0 0 12-12v-72a36.04 36.04 0 0 0 -36-36z" fill="url(#New_Gradient_Swatch_4)"/><path d="m308.366 247.317c-5.318-10.637-16.638-23.317-40.366-23.317h-63.953a6.013 6.013 0 0 0 -6.047 5.943c-.037 28.057 26.954 31.674 28.1 32.057a6 6 0 0 0 1.9.308l60-.308 8 37.7a4 4 0 0 0 7.264 2.316c5-7.016 10.736-18.228 10.736-32.016a55.916 55.916 0 0 0 -5.634-22.683z" fill="url(#New_Gradient_Swatch_3)"/></g></g></svg>