<svg width="414" height="736" viewBox="0 0 414 736" fill="none" xmlns="http://www.w3.org/2000/svg">
<g clip-path="url(#clip0)">
<rect width="414" height="736" fill="white"/>
<rect width="414" height="736" fill="#235474"/>
<g opacity="0.5">
<path d="M364.368 694.238C364.018 693.268 362.949 692.765 361.98 693.115C361.01 693.464 360.507 694.533 360.857 695.503C360.865 695.527 360.875 695.55 360.884 695.574C362.586 700.015 362.709 703.411 361.22 704.903C359.414 706.706 354.915 706.142 349.183 703.399C341.509 699.415 334.533 694.209 328.529 687.987C313.913 673.369 307.882 659.026 311.612 655.296C312.802 654.356 314.349 653.995 315.833 654.31C316.86 654.386 317.755 653.614 317.831 652.586C317.904 651.593 317.184 650.717 316.195 650.597C313.6 650.138 310.939 650.895 308.974 652.65C302.137 659.485 312.588 677.314 325.89 690.618C332.193 697.14 339.516 702.591 347.572 706.756C349.031 707.455 350.535 708.056 352.073 708.557L338.816 713.584C321.113 706.853 308.368 691.159 305.415 672.451C305.256 671.433 304.301 670.737 303.283 670.897C302.264 671.056 301.568 672.011 301.728 673.029C302.021 674.895 302.413 676.761 302.893 678.586C307.189 694.866 318.506 708.391 333.774 715.491L311.954 723.748C311.853 723.581 311.728 723.431 311.58 723.303C306.035 718.851 302.555 712.321 301.952 705.236L301.086 694.751C301.018 693.735 300.139 692.967 299.123 693.035C299.104 693.036 299.085 693.038 299.065 693.04C298.038 693.121 297.272 694.021 297.353 695.048C297.353 695.052 297.354 695.056 297.354 695.061L298.235 705.542C298.891 713.116 302.424 720.15 308.108 725.199L292.542 731.092L295.341 719.605C295.585 718.603 294.971 717.593 293.97 717.349C292.968 717.105 291.958 717.719 291.714 718.721L288.073 733.648C287.828 734.649 288.44 735.659 289.441 735.905C289.809 735.995 290.194 735.971 290.547 735.837L359.587 709.714C359.697 709.66 359.801 709.595 359.897 709.52C361.391 709.29 362.776 708.599 363.858 707.544C365.707 705.695 367.299 701.882 364.368 694.238Z" fill="white"/>
<path d="M381.976 689.425C371.889 685.649 360.987 684.591 350.362 686.356L343.695 687.476C342.683 687.67 342.02 688.648 342.215 689.66C342.403 690.638 343.325 691.296 344.311 691.155L350.976 690.045C360.954 688.386 371.194 689.381 380.667 692.93C380.877 693.004 381.099 693.041 381.321 693.04C382.352 693.041 383.189 692.208 383.19 691.177C383.192 690.397 382.708 689.698 381.976 689.425Z" fill="white"/>
<path d="M388.61 660.516C388.167 659.586 387.053 659.191 386.123 659.634L346.938 678.293C346.007 678.736 345.612 679.849 346.055 680.78C346.055 680.78 346.055 680.781 346.055 680.781C346.498 681.711 347.611 682.106 348.542 681.663C348.542 681.663 348.542 681.663 348.543 681.663L387.727 663.004C388.658 662.561 389.053 661.447 388.61 660.516Z" fill="white"/>
<path d="M333.337 636.664C333.132 635.654 332.147 635.002 331.137 635.207C330.127 635.412 329.474 636.397 329.68 637.407C329.684 637.43 329.689 637.452 329.695 637.474C332.056 648.026 331.083 659.05 326.909 669.025L324.196 675.535C323.804 676.484 324.251 677.571 325.198 677.969C325.424 678.064 325.668 678.113 325.914 678.112C326.667 678.112 327.347 677.66 327.637 676.965L330.351 670.462C334.824 659.777 335.867 647.967 333.337 636.664Z" fill="white"/>
<path d="M390.651 691.174C387.56 691.174 385.053 693.68 385.053 696.772C385.053 699.863 387.56 702.369 390.651 702.369C393.743 702.369 396.249 699.863 396.249 696.772C396.249 693.68 393.743 691.174 390.651 691.174ZM390.651 698.638C389.621 698.638 388.785 697.802 388.785 696.772C388.785 695.741 389.621 694.906 390.651 694.906C391.682 694.906 392.517 695.741 392.517 696.772C392.517 697.802 391.682 698.638 390.651 698.638Z" fill="white"/>
<path d="M345.869 638.928C342.777 638.928 340.271 641.434 340.271 644.525C340.271 647.617 342.777 650.123 345.869 650.123C348.96 650.123 351.466 647.617 351.466 644.525C351.466 641.434 348.96 638.928 345.869 638.928ZM345.869 646.391C344.838 646.391 344.003 645.556 344.003 644.525C344.003 643.495 344.838 642.659 345.869 642.659C346.899 642.659 347.735 643.495 347.735 644.525C347.735 645.556 346.899 646.391 345.869 646.391Z" fill="white"/>
<path d="M329.075 631.464C331.136 631.464 332.807 629.793 332.807 627.732C332.807 625.671 331.136 624 329.075 624C327.014 624 325.343 625.671 325.343 627.732C325.343 629.793 327.014 631.464 329.075 631.464Z" fill="white"/>
<path d="M381.321 633.33C380.291 633.33 379.456 634.165 379.456 635.196V637.062C379.456 638.092 380.291 638.928 381.321 638.928C382.352 638.928 383.187 638.092 383.187 637.062V635.196C383.187 634.165 382.352 633.33 381.321 633.33Z" fill="white"/>
<path d="M381.321 624C380.291 624 379.456 624.835 379.456 625.866V627.732C379.456 628.762 380.291 629.598 381.321 629.598C382.352 629.598 383.187 628.762 383.187 627.732V625.866C383.187 624.835 382.352 624 381.321 624Z" fill="white"/>
<path d="M386.919 629.598H385.053C384.023 629.598 383.187 630.433 383.187 631.464C383.187 632.494 384.023 633.33 385.053 633.33H386.919C387.95 633.33 388.785 632.494 388.785 631.464C388.785 630.433 387.95 629.598 386.919 629.598Z" fill="white"/>
<path d="M377.59 629.598H375.724C374.693 629.598 373.858 630.433 373.858 631.464C373.858 632.494 374.693 633.33 375.724 633.33H377.59C378.62 633.33 379.456 632.494 379.456 631.464C379.456 630.433 378.62 629.598 377.59 629.598Z" fill="white"/>
<path d="M368.26 644.486H358.891C357.861 644.486 357.025 645.322 357.025 646.352V655.721C357.025 656.751 357.861 657.587 358.891 657.587H368.26C369.29 657.587 370.126 656.751 370.126 655.721V646.352C370.126 645.322 369.29 644.486 368.26 644.486ZM366.394 653.855H360.757V648.218H366.394V653.855Z" fill="white"/>
<path d="M354.667 660.068C353.982 659.336 352.842 659.277 352.084 659.932L333.425 676.726C332.659 677.415 332.597 678.595 333.287 679.361C333.976 680.126 335.156 680.188 335.921 679.499L354.581 662.705C355.333 662.001 355.371 660.82 354.667 660.068Z" fill="white"/>
<path d="M388.785 666.917C387.755 666.917 386.919 667.752 386.919 668.783V670.649C386.919 671.679 387.755 672.514 388.785 672.514C389.816 672.514 390.651 671.679 390.651 670.649V668.783C390.651 667.752 389.816 666.917 388.785 666.917Z" fill="white"/>
<path d="M396.702 666.596L395.383 665.276C394.642 664.56 393.461 664.581 392.745 665.322C392.046 666.045 392.046 667.192 392.745 667.915L394.064 669.234C394.805 669.95 395.986 669.93 396.702 669.188C397.401 668.465 397.401 667.319 396.702 666.596Z" fill="white"/>
<path d="M398.115 659.453H396.249C395.219 659.453 394.383 660.288 394.383 661.319C394.383 662.349 395.219 663.185 396.249 663.185H398.115C399.145 663.185 399.981 662.349 399.981 661.319C399.981 660.288 399.145 659.453 398.115 659.453Z" fill="white"/>
<path d="M396.657 653.403C395.934 652.705 394.787 652.705 394.064 653.403L392.745 654.723C392.016 655.452 392.016 656.633 392.745 657.362C393.095 657.711 393.569 657.908 394.064 657.908C394.559 657.908 395.033 657.711 395.383 657.361L396.702 656.042C397.418 655.301 397.398 654.119 396.657 653.403Z" fill="white"/>
<path d="M388.785 650.123C387.755 650.123 386.919 650.959 386.919 651.989V653.855C386.919 654.886 387.755 655.721 388.785 655.721C389.816 655.721 390.651 654.886 390.651 653.855V651.989C390.651 650.959 389.816 650.123 388.785 650.123Z" fill="white"/>
<path d="M384.826 654.723L383.506 653.403C382.765 652.688 381.584 652.708 380.868 653.449C380.17 654.172 380.17 655.319 380.868 656.042L382.187 657.361C382.929 658.077 384.11 658.057 384.826 657.315C385.524 656.592 385.524 655.446 384.826 654.723Z" fill="white"/>
<path d="M310.324 632.068C310.105 631.393 309.521 630.902 308.819 630.799L303.342 630.003L300.899 625.041C300.355 624.117 299.164 623.809 298.24 624.353C297.956 624.52 297.719 624.757 297.552 625.041L295.098 630.003L289.622 630.799C288.602 630.947 287.894 631.893 288.042 632.913C288.1 633.319 288.291 633.694 288.584 633.981L292.546 637.843L291.613 643.298C291.434 644.312 292.111 645.28 293.126 645.459C293.534 645.532 293.955 645.466 294.322 645.272L299.22 642.689L304.118 645.264C305.03 645.744 306.159 645.393 306.638 644.481C306.829 644.118 306.895 643.702 306.826 643.298L305.893 637.843L309.856 633.981C310.363 633.484 310.545 632.743 310.324 632.068ZM302.579 635.856C302.139 636.284 301.939 636.901 302.041 637.506L302.504 640.202L300.088 638.928C299.545 638.642 298.896 638.642 298.352 638.928L295.927 640.2L296.389 637.504C296.494 636.901 296.297 636.286 295.861 635.856L293.9 633.947L296.608 633.554C297.216 633.465 297.741 633.084 298.013 632.533L299.22 630.083L300.429 632.533C300.701 633.083 301.225 633.465 301.832 633.554L304.538 633.947L302.579 635.856Z" fill="white"/>
<path d="M393.678 717.53H393.67L392.901 716.377C388.591 709.931 381.813 705.548 374.166 704.262C373.145 704.116 372.2 704.825 372.055 705.845C371.914 706.831 372.572 707.753 373.55 707.941C379.066 708.877 384.092 711.68 387.789 715.879C384.681 716.438 381.963 718.305 380.325 721.005C378.315 724.604 379.604 729.15 383.203 731.16C386.802 733.17 391.349 731.881 393.359 728.282C394.126 726.8 394.541 725.161 394.57 723.492C396.555 726.375 396.714 730.141 394.978 733.182C394.453 734.068 394.745 735.213 395.631 735.739C396.517 736.264 397.662 735.972 398.188 735.086C398.205 735.057 398.221 735.029 398.236 734.999C401.653 728.897 399.64 721.185 393.678 717.53ZM390.104 726.461C389.109 728.265 386.838 728.921 385.034 727.925C383.23 726.929 382.574 724.659 383.57 722.854C383.576 722.844 383.581 722.834 383.587 722.824C384.688 721.021 386.545 719.812 388.64 719.536C388.964 719.527 389.285 719.602 389.573 719.753C391.148 720.631 391.231 724.442 390.104 726.461Z" fill="white"/>
</g>
<g opacity="0.5" clip-path="url(#clip1)">
<path d="M14.203 370.271C15.1447 369.852 15.5683 368.749 15.1493 367.808C14.7304 366.866 13.6275 366.443 12.6861 366.862C12.663 366.872 12.6401 366.883 12.6173 366.894C8.31185 368.914 4.93378 369.284 3.33674 367.907C1.40771 366.237 1.64272 361.709 3.96172 355.793C7.37805 347.849 12.0627 340.514 17.8322 334.073C31.3489 318.433 45.216 311.376 49.2073 314.825C50.2313 315.943 50.7039 317.46 50.4968 318.962C50.4961 319.993 51.3311 320.829 52.3615 320.83C53.3576 320.83 54.1785 320.048 54.2265 319.054C54.4957 316.433 53.5478 313.833 51.6544 312.001C44.3406 305.679 27.3184 317.398 15.0164 331.633C8.96989 338.392 4.06554 346.093 0.496713 354.431C-0.093949 355.936 -0.584601 357.48 -0.971999 359.05L-6.94924 346.193C-1.52346 328.048 13.2031 314.196 31.6468 309.891C32.6506 309.658 33.2754 308.655 33.042 307.651C32.8086 306.647 31.8057 306.023 30.8019 306.256C28.9622 306.684 27.1297 307.21 25.3445 307.821C9.41977 313.29 -3.24636 325.56 -9.21768 341.303L-19.0388 320.141C-18.8795 320.029 -18.7393 319.892 -18.623 319.736C-14.5855 313.882 -8.32607 309.937 -1.30276 308.82L9.09129 307.195C10.0994 307.053 10.8018 306.12 10.66 305.112C10.6572 305.093 10.6544 305.074 10.6509 305.055C10.4948 304.036 9.54234 303.337 8.52379 303.493C8.51962 303.494 8.51524 303.494 8.51109 303.495L-1.87815 305.135C-9.38452 306.34 -16.1437 310.375 -20.7662 316.411L-27.7747 301.315L-16.1149 303.271C-15.098 303.442 -14.1354 302.756 -13.9646 301.739C-13.7939 300.723 -14.4796 299.76 -15.4965 299.589L-30.6491 297.043C-31.6652 296.872 -32.6284 297.556 -32.8001 298.572C-32.8632 298.945 -32.8114 299.328 -32.6522 299.67L-1.57961 366.628C-1.51812 366.734 -1.44567 366.833 -1.36355 366.923C-1.02603 368.397 -0.2363 369.728 0.895215 370.731C2.87387 372.44 6.7916 373.751 14.203 370.271Z" fill="white"/>
<path d="M20.2826 387.484C23.3156 377.149 23.5789 366.198 21.0458 355.73L19.4446 349.162C19.177 348.166 18.1535 347.577 17.1582 347.844C16.1967 348.103 15.6076 349.071 15.8195 350.043L17.4113 356.61C19.7913 366.442 19.5432 376.726 16.6924 386.432C16.6335 386.647 16.6124 386.871 16.6302 387.093C16.7035 388.121 17.596 388.895 18.624 388.822C19.4023 388.766 20.0638 388.233 20.2826 387.484Z" fill="white"/>
<path d="M49.5973 391.998C50.4933 391.488 50.8064 390.349 50.2967 389.453L28.8383 351.729C28.3289 350.833 27.1899 350.519 26.2939 351.029C26.2937 351.029 26.2935 351.029 26.2935 351.029C25.3977 351.538 25.0843 352.678 25.5937 353.573C25.5938 353.574 25.594 353.574 25.594 353.574L47.0524 391.299C47.5621 392.195 48.7013 392.508 49.5973 391.998Z" fill="white"/>
<path d="M69.3687 335.138C70.361 334.859 70.9401 333.83 70.6619 332.837C70.3838 331.845 69.354 331.266 68.3617 331.544C68.3397 331.55 68.3179 331.557 68.2962 331.564C57.9442 334.686 46.8777 334.517 36.626 331.079L29.9358 328.846C28.9612 328.524 27.9094 329.049 27.5818 330.022C27.5032 330.255 27.4723 330.502 27.4906 330.747C27.5454 331.499 28.046 332.143 28.7603 332.382L35.4433 334.617C46.4247 338.301 58.2793 338.483 69.3687 335.138Z" fill="white"/>
<path d="M19.1694 396.263C18.9447 393.179 16.2629 390.862 13.1795 391.086C10.096 391.311 7.77866 393.993 8.00339 397.076C8.22813 400.16 10.9099 402.477 13.9933 402.252C17.0768 402.028 19.3941 399.346 19.1694 396.263ZM11.7254 396.805C11.6505 395.777 12.423 394.883 13.4508 394.808C14.4785 394.734 15.3725 395.506 15.4474 396.534C15.5223 397.562 14.7498 398.456 13.722 398.53C12.6943 398.605 11.8003 397.833 11.7254 396.805Z" fill="white"/>
<path d="M68.0222 347.801C67.7975 344.717 65.1157 342.4 62.0323 342.625C58.9488 342.849 56.6315 345.531 56.8562 348.614C57.0809 351.698 59.7627 354.015 62.8461 353.791C65.9296 353.566 68.2469 350.884 68.0222 347.801ZM60.5782 348.343C60.5033 347.315 61.2758 346.421 62.3036 346.347C63.3313 346.272 64.2253 347.044 64.3002 348.072C64.3751 349.1 63.6026 349.994 62.5748 350.069C61.5471 350.143 60.6531 349.371 60.5782 348.343Z" fill="white"/>
<path d="M74.2455 330.509C74.3953 332.565 76.1832 334.11 78.2388 333.96C80.2944 333.81 81.8393 332.022 81.6895 329.966C81.5397 327.911 79.7518 326.366 77.6962 326.516C75.6406 326.666 74.0957 328.453 74.2455 330.509Z" fill="white"/>
<path d="M76.1823 382.753C76.1074 381.725 75.2134 380.953 74.1857 381.027L72.3247 381.163C71.2969 381.238 70.5244 382.132 70.5993 383.16C70.6742 384.187 71.5682 384.96 72.5959 384.885L74.4569 384.749C75.4847 384.675 76.2572 383.781 76.1823 382.753Z" fill="white"/>
<path d="M85.4873 382.075C85.4124 381.047 84.5184 380.274 83.4907 380.349L81.6297 380.485C80.602 380.56 79.8294 381.454 79.9043 382.482C79.9792 383.509 80.8732 384.282 81.901 384.207L83.762 384.071C84.7897 383.996 85.5622 383.102 85.4873 382.075Z" fill="white"/>
<path d="M80.3112 388.065L80.1756 386.204C80.1007 385.176 79.2067 384.403 78.179 384.478C77.1512 384.553 76.3787 385.447 76.4536 386.475L76.5892 388.336C76.6641 389.364 77.5581 390.136 78.5859 390.061C79.6136 389.986 80.3861 389.092 80.3112 388.065Z" fill="white"/>
<path d="M79.6331 378.759L79.4974 376.898C79.4225 375.871 78.5285 375.098 77.5008 375.173C76.473 375.248 75.7005 376.142 75.7754 377.17L75.911 379.031C75.986 380.059 76.8799 380.831 77.9077 380.756C78.9354 380.681 79.708 379.787 79.6331 378.759Z" fill="white"/>
<path d="M64.1059 370.537L63.4249 361.193C63.35 360.165 62.456 359.392 61.4282 359.467L52.0841 360.148C51.0564 360.223 50.2839 361.117 50.3588 362.145L51.0398 371.489C51.1147 372.517 52.0087 373.289 53.0365 373.214L62.3805 372.533C63.4083 372.458 64.1808 371.564 64.1059 370.537ZM54.6262 369.357L54.2164 363.735L59.8385 363.325L60.2483 368.947L54.6262 369.357Z" fill="white"/>
<path d="M47.5775 358.112C48.257 357.376 48.2337 356.234 47.5247 355.526L29.4193 338.137C28.676 337.424 27.4951 337.448 26.7815 338.191C26.0682 338.934 26.0923 340.115 26.8353 340.829L44.9407 358.218C45.6982 358.917 46.8785 358.87 47.5775 358.112Z" fill="white"/>
<path d="M43.2268 392.638C43.1519 391.611 42.2579 390.838 41.2302 390.913L39.3692 391.049C38.3414 391.123 37.5689 392.017 37.6438 393.045C37.7187 394.073 38.6127 394.845 39.6404 394.771L41.5014 394.635C42.5292 394.56 43.3017 393.666 43.2268 392.638Z" fill="white"/>
<path d="M44.1224 400.511L45.3422 399.1C46.0025 398.308 45.8962 397.132 45.1049 396.471C44.333 395.827 43.1896 395.911 42.519 396.66L41.2992 398.071C40.6389 398.863 40.7452 400.039 41.5365 400.7C42.3087 401.344 43.452 401.26 44.1224 400.511Z" fill="white"/>
<path d="M51.349 401.401L51.2134 399.54C51.1385 398.512 50.2445 397.739 49.2167 397.814C48.189 397.889 47.4165 398.783 47.4914 399.811L47.627 401.672C47.7019 402.7 48.5959 403.472 49.6236 403.397C50.6514 403.322 51.4239 402.428 51.349 401.401Z" fill="white"/>
<path d="M57.2764 399.507C57.9203 398.735 57.837 397.591 57.0879 396.921L55.6763 395.701C54.8964 395.027 53.7181 395.113 53.0444 395.893C52.7211 396.268 52.5595 396.755 52.5954 397.248C52.6314 397.742 52.8622 398.201 53.2366 398.524L54.6482 399.744C55.4396 400.404 56.6163 400.298 57.2764 399.507Z" fill="white"/>
<path d="M59.9758 391.418C59.9009 390.39 59.0069 389.617 57.9792 389.692L56.1182 389.828C55.0904 389.903 54.3179 390.797 54.3928 391.824C54.4677 392.852 55.3617 393.625 56.3895 393.55L58.2505 393.414C59.2782 393.339 60.0507 392.445 59.9758 391.418Z" fill="white"/>
<path d="M55.1006 387.803L56.3205 386.391C56.9805 385.6 56.8744 384.423 56.0831 383.763C55.3112 383.119 54.1678 383.202 53.4972 383.952L52.2774 385.363C51.6171 386.154 51.7235 387.331 52.5148 387.991C53.2869 388.635 54.4303 388.552 55.1006 387.803Z" fill="white"/>
<path d="M72.2795 311.852C72.9367 311.584 73.3847 310.966 73.4355 310.258L73.8321 304.738L78.6029 301.941C79.4852 301.331 79.706 300.121 79.0959 299.239C78.9084 298.967 78.6551 298.749 78.3596 298.602L73.2328 296.516L72.0401 291.112C71.8191 290.105 70.824 289.468 69.8174 289.689C69.4166 289.777 69.0562 289.995 68.7917 290.308L65.2273 294.54L59.7198 294.006C58.6946 293.901 57.7785 294.647 57.6736 295.672C57.6314 296.085 57.7278 296.5 57.9478 296.852L60.8795 301.549L58.6673 306.621C58.2554 307.566 58.687 308.666 59.6317 309.078C60.0078 309.242 60.4273 309.277 60.8257 309.179L66.1975 307.852L70.3379 311.524C70.8701 311.994 71.6225 312.121 72.2795 311.852ZM67.9386 304.402C67.4798 303.995 66.8502 303.839 66.2544 303.986L63.5989 304.644L64.6943 302.141C64.9393 301.578 64.8922 300.931 64.5682 300.41L63.1227 298.083L65.8454 298.349C66.4539 298.41 67.0537 298.168 67.4503 297.702L69.2116 295.608L69.8011 298.28C69.9332 298.879 70.3522 299.376 70.9212 299.607L73.4524 300.633L71.0968 302.017C70.5678 302.327 70.2253 302.878 70.1808 303.49L69.9848 306.217L67.9386 304.402Z" fill="white"/>
<path d="M-6.89727 401.197L-6.89781 401.19L-5.80359 400.339C0.312135 395.571 4.19091 388.492 4.91797 380.772C4.98897 379.744 4.21308 378.853 3.185 378.782C2.1917 378.713 1.3195 379.436 1.20331 380.425C0.670494 385.994 -1.75888 391.211 -5.67836 395.204C-6.46188 392.145 -8.52116 389.569 -11.3331 388.132C-15.0688 386.39 -19.5097 388.005 -21.2524 391.741C-22.995 395.477 -21.3793 399.918 -17.6436 401.66C-16.1099 402.318 -14.4446 402.612 -12.7783 402.52C-15.51 404.71 -19.2542 405.142 -22.4128 403.632C-23.335 403.172 -24.4555 403.547 -24.9154 404.469C-25.3753 405.391 -25.0006 406.511 -24.0784 406.971C-24.0488 406.986 -24.0191 407 -23.9886 407.013C-17.6539 409.977 -10.1093 407.41 -6.89727 401.197ZM-16.0638 398.282C-17.936 397.42 -18.7547 395.204 -17.8925 393.332C-17.0304 391.46 -14.8139 390.641 -12.9419 391.503C-12.9315 391.508 -12.9209 391.513 -12.9105 391.517C-11.0322 392.485 -9.69175 394.249 -9.26407 396.318C-9.23165 396.641 -9.28274 396.967 -9.41213 397.264C-10.1742 398.899 -13.9682 399.26 -16.0638 398.282Z" fill="white"/>
</g>
<g opacity="0.5" clip-path="url(#clip2)">
<path d="M56.564 20.9654L58.1259 26.2575L63.4032 28.7948L66.2475 26.9906C67.9505 25.9104 68.731 23.8319 68.1601 21.8975L65.1353 11.6485L58.4766 15.8723C56.7736 16.9525 55.9931 19.031 56.564 20.9654Z" fill="#A4CCFF"/>
<path d="M24.5445 19.8796L31.3197 42.8354L36.7026 45.7318L39.5472 43.9274C41.2501 42.8472 42.0307 40.7687 41.4598 38.8343L34.4002 14.915L29.3013 12.9821L26.4569 14.7864C24.7542 15.8668 23.9736 17.9452 24.5445 19.8796V19.8796Z" fill="#A4CCFF"/>
<path d="M51.322 32.5787L29.3017 12.9825L35.9604 8.75871C37.6634 7.67851 39.8763 7.85805 41.3828 9.19866L63.4032 28.7948L56.7444 33.0186C55.0415 34.0988 52.8286 33.9193 51.322 32.5787V32.5787Z" fill="#C3DDFF"/>
<path d="M-2.15563 36.8166L4.70321 60.0557L10.0027 62.6686L12.8472 60.8642C14.5501 59.784 15.3307 57.7055 14.7598 55.7711L7.3126 30.5384L2.60129 29.919L-0.243228 31.7234C-1.94616 32.804 -2.72671 34.8824 -2.15563 36.8166V36.8166Z" fill="#A4CCFF"/>
<path d="M24.6217 49.5155L2.60132 29.9193L9.26007 25.6955C10.963 24.6153 13.176 24.7949 14.6825 26.1355L36.7028 45.7316L30.0441 49.9554C28.3409 51.0358 26.1284 50.8563 24.6217 49.5155V49.5155Z" fill="#C3DDFF"/>
<path d="M-2.07869 66.4527L-24.099 46.8565L-17.4403 42.6327C-15.7373 41.5525 -13.5244 41.7321 -12.0179 43.0727L10.0025 62.6688L3.34372 66.8926C1.64076 67.9728 -0.572169 67.7933 -2.07869 66.4527V66.4527Z" fill="#C3DDFF"/>
<path d="M8.62124 132.711L3.90066 127.831L-1.06748 128.941L-2.75216 131.858C-3.76089 133.604 -3.48978 135.808 -2.08765 137.257L5.34144 144.939L9.28556 138.111C10.2943 136.364 10.0232 134.161 8.62124 132.711V132.711Z" fill="#95D6A4"/>
<path d="M58.4213 68.6256L62.9832 73.3423L68.1097 72.3957L69.7943 69.4788C70.8031 67.7326 70.532 65.529 69.1298 64.0793L61.7009 56.3981L57.757 63.2263C56.7481 64.9723 57.0192 67.1759 58.4213 68.6256V68.6256Z" fill="#95D6A4"/>
<path d="M29.5426 82.4977L46.0983 99.6157L52.2945 99.7751L53.9794 96.8581C54.9881 95.1118 54.717 92.9082 53.3149 91.4585L36.9967 74.5862L30.563 74.1815L28.8783 77.0984C27.8694 78.8448 28.1407 81.0482 29.5426 82.4977V82.4977Z" fill="#95D6A4"/>
<path d="M59.1561 81.3459L30.5628 74.1817L34.5069 67.3537C35.5156 65.6075 37.5597 64.7413 39.5161 65.2313L68.1095 72.3955L64.1654 79.2235C63.1568 80.9699 61.1125 81.8359 59.1561 81.3459Z" fill="#B3E59F"/>
<path d="M13.7277 109.878L30.1323 126.839L36.4794 127.155L38.1643 124.238C39.173 122.492 38.9019 120.288 37.4998 118.839L20.9708 101.749L14.7477 101.562L13.063 104.478C12.0542 106.225 12.3256 108.428 13.7277 109.878Z" fill="#95D6A4"/>
<path d="M43.341 108.726L14.7476 101.561L18.6918 94.7335C19.7005 92.9873 21.7446 92.1211 23.701 92.6111L52.2944 99.7753L48.3502 106.603C47.3417 108.35 45.2974 109.216 43.341 108.726Z" fill="#B3E59F"/>
<path d="M27.5259 136.105L-1.06748 128.941L2.87664 122.113C3.88537 120.367 5.92947 119.501 7.88586 119.991L36.4792 127.155L32.5351 133.983C31.5266 135.73 29.4825 136.596 27.5259 136.105Z" fill="#B3E59F"/>
<path d="M93.5453 69.9378C92.6194 69.1017 92.5468 67.6736 93.3827 66.7479C94.2185 65.8223 94.1465 64.3947 93.22 63.5581C92.2936 62.7215 90.8661 62.7951 90.0302 63.7207C89.1942 64.6466 87.766 64.7192 86.8404 63.8834C85.9139 63.0468 84.4864 63.1203 83.6506 64.046C82.8147 64.9716 82.8867 66.3992 83.8132 67.2358C84.739 68.0718 84.8117 69.5 83.9758 70.4256C83.1399 71.3513 83.212 72.7789 84.1384 73.6155C85.0649 74.4521 86.4924 74.3785 87.3283 73.4528C88.1643 72.527 89.5924 72.4544 90.5181 73.2902C91.4445 74.1268 92.8721 74.0533 93.7079 73.1276C94.5438 72.2019 94.4718 70.7744 93.5453 69.9378Z" fill="#FF8086"/>
<path d="M3.52827 92.1168C0.750886 89.6089 0.532655 85.3245 3.04041 82.5473C3.87645 81.6215 3.80365 80.1935 2.87779 79.3575C1.95192 78.5215 0.523995 78.5943 -0.312043 79.5201C-2.81998 82.2975 -7.10434 82.5157 -9.88153 80.008C-10.8074 79.172 -12.2353 79.2448 -13.0714 80.1706C-13.9072 81.0963 -13.8346 82.5244 -12.9087 83.3604C-10.1313 85.8684 -9.91312 90.1527 -12.4209 92.9299C-13.2567 93.8556 -13.1841 95.2837 -12.2582 96.1198C-11.3324 96.9558 -9.90427 96.8828 -9.06842 95.9571C-6.56048 93.1797 -2.27612 92.9615 0.501068 95.4693C1.42693 96.3053 2.85504 96.2323 3.6909 95.3067C4.52676 94.381 4.45414 92.9529 3.52827 92.1168V92.1168Z" fill="#FFE07D"/>
<path d="M89.2171 47.7712C86.4397 45.2633 86.2215 40.9789 88.7292 38.2017C89.5653 37.2759 89.4925 35.8479 88.5666 35.0119C87.6407 34.1759 86.2128 34.2487 85.3768 35.1745C82.8688 37.9519 78.5845 38.1701 75.8073 35.6624C74.8814 34.8263 73.4535 34.8991 72.6175 35.825C71.7816 36.7507 71.8542 38.1788 72.7801 39.0148C75.5575 41.5228 75.7757 45.8071 73.268 48.5843C72.4321 49.51 72.5047 50.9381 73.4306 51.7741C74.3564 52.6102 75.7845 52.5372 76.6204 51.6115C79.1283 48.8341 83.4127 48.6159 86.1899 51.1237C87.1158 51.9597 88.5439 51.8867 89.3797 50.961C90.2156 50.0354 90.143 48.6072 89.2171 47.7712Z" fill="#FFE07D"/>
</g>
<g opacity="0.5" clip-path="url(#clip3)">
<path d="M346.15 321.486C345.762 320.301 346.409 319.025 347.595 318.638C348.78 318.251 349.428 316.976 349.04 315.79C348.653 314.603 347.378 313.957 346.192 314.344C345.006 314.732 343.731 314.085 343.344 312.899C342.956 311.713 341.681 311.066 340.496 311.454C339.31 311.841 338.663 313.116 339.05 314.302C339.438 315.488 338.79 316.763 337.605 317.15C336.419 317.538 335.772 318.812 336.16 319.999C336.547 321.185 337.822 321.831 339.008 321.444C340.194 321.056 341.469 321.704 341.856 322.889C342.244 324.076 343.519 324.722 344.704 324.335C345.89 323.947 346.537 322.673 346.15 321.486Z" fill="#FF8086"/>
<path d="M370.92 294.531L372.584 287.533L368.88 284.337L365.515 284.487C363.501 284.578 361.79 285.993 361.323 287.954L358.85 298.351L366.727 297.998C368.742 297.908 370.453 296.493 370.92 294.531V294.531Z" fill="#A4CCFF"/>
<path d="M424.498 285.125L418.959 308.41L422.188 313.6L425.554 313.449C427.568 313.359 429.279 311.944 429.746 309.982L435.517 285.719L432.055 281.507L428.69 281.657C426.675 281.748 424.965 283.163 424.498 285.125V285.125Z" fill="#A4CCFF"/>
<path d="M392.91 286.54L387.303 310.112L390.601 315.015L393.966 314.864C395.981 314.774 397.692 313.359 398.159 311.397L404.247 285.802L400.468 282.921L397.103 283.072C395.088 283.163 393.377 284.578 392.91 286.54V286.54Z" fill="#A4CCFF"/>
<path d="M409.826 310.874L400.468 282.922L408.345 282.569C410.36 282.479 412.19 283.735 412.831 285.647L422.189 313.6L414.311 313.953C412.296 314.043 410.466 312.787 409.826 310.874V310.874Z" fill="#C3DDFF"/>
<path d="M378.238 312.289L368.88 284.337L376.758 283.984C378.772 283.894 380.603 285.15 381.243 287.062L390.601 315.015L382.724 315.367C380.709 315.458 378.878 314.201 378.238 312.289V312.289Z" fill="#C3DDFF"/>
<path d="M354.568 375.094L352.9 368.512L348.038 367.004L345.125 368.697C343.382 369.71 342.521 371.757 343.017 373.712L345.642 384.07L352.459 380.108C354.203 379.095 355.063 377.048 354.568 375.094V375.094Z" fill="#95D6A4"/>
<path d="M397.692 341.935L403.541 365.02L408.838 368.24L411.75 366.547C413.494 365.534 414.354 363.487 413.859 361.532L408.093 338.779L402.713 335.228L399.801 336.921C398.057 337.934 397.196 339.981 397.692 341.935V341.935Z" fill="#95D6A4"/>
<path d="M423.956 355.664L402.713 335.228L409.53 331.266C411.274 330.253 413.478 330.518 414.931 331.916L436.175 352.352L429.357 356.314C427.614 357.328 425.41 357.062 423.956 355.664Z" fill="#B3E59F"/>
<path d="M370.354 357.824L376.15 380.698L381.5 384.128L384.412 382.436C386.156 381.422 387.017 379.376 386.521 377.421L380.681 354.374L375.375 351.116L372.463 352.809C370.719 353.822 369.859 355.869 370.354 357.824Z" fill="#95D6A4"/>
<path d="M396.618 371.552L375.375 351.116L382.193 347.154C383.936 346.141 386.14 346.406 387.594 347.804L408.837 368.24L402.02 372.202C400.276 373.216 398.072 372.95 396.618 371.552Z" fill="#B3E59F"/>
<path d="M369.281 387.44L348.038 367.004L354.855 363.042C356.599 362.029 358.803 362.294 360.256 363.692L381.5 384.128L374.682 388.09C372.939 389.104 370.735 388.839 369.281 387.44Z" fill="#B3E59F"/>
<path d="M370.339 337.343C369.176 333.786 371.118 329.96 374.675 328.798C375.861 328.411 376.508 327.136 376.12 325.95C375.733 324.764 374.458 324.117 373.272 324.504C369.715 325.667 365.889 323.725 364.727 320.168C364.34 318.983 363.065 318.336 361.879 318.723C360.693 319.11 360.046 320.386 360.434 321.571C361.596 325.128 359.654 328.954 356.098 330.116C354.912 330.503 354.265 331.779 354.652 332.964C355.04 334.15 356.315 334.797 357.5 334.41C361.058 333.247 364.883 335.189 366.045 338.746C366.433 339.931 367.708 340.578 368.893 340.191C370.079 339.804 370.726 338.528 370.339 337.343V337.343Z" fill="#FFE07D"/>
</g>
<g opacity="0.5">
<path d="M4.83584 737.162L-1.29835 733.407L-5.48735 735.935L-6.38923 739.18C-6.92921 741.123 -6.11557 743.189 -4.39572 744.242L4.71829 749.821L6.82962 742.224C7.3696 740.281 6.55596 738.215 4.83584 737.162V737.162Z" fill="#A4CCFF"/>
<path d="M37.0282 662.659L41.7341 665.54L47.3514 663.887L48.2532 660.641C48.7932 658.698 47.9796 656.633 46.2595 655.58L37.1457 650L35.0344 657.597C34.4944 659.541 35.3081 661.606 37.0282 662.659Z" fill="#A4CCFF"/>
<path d="M12.5359 683.312L32.9491 695.809L38.8854 694.352L39.7873 691.106C40.3273 689.163 39.5136 687.097 37.7935 686.044L16.5235 673.023L11.4438 675.005L10.5419 678.251C10.0022 680.194 10.8158 682.259 12.5359 683.312V683.312Z" fill="#A4CCFF"/>
<path d="M40.9207 674.792L11.4443 675.005L13.5556 667.408C14.0956 665.465 15.8584 664.115 17.875 664.1L47.3514 663.887L45.24 671.484C44.7001 673.427 42.9373 674.777 40.9207 674.792V674.792Z" fill="#C3DDFF"/>
<path d="M4.07025 713.777L24.7354 726.428L30.4197 724.816L31.3216 721.57C31.8616 719.627 31.0479 717.562 29.3278 716.509L6.88989 702.772L2.97807 705.47L2.0762 708.715C1.53649 710.659 2.35013 712.724 4.07025 713.777V713.777Z" fill="#A4CCFF"/>
<path d="M32.4547 705.256L2.97833 705.47L5.08967 697.872C5.62965 695.929 7.3924 694.58 9.40898 694.565L38.8854 694.351L36.7741 701.949C36.2341 703.892 34.4716 705.242 32.4547 705.256V705.256Z" fill="#C3DDFF"/>
<path d="M23.989 735.721L-5.48737 735.935L-3.37603 728.337C-2.83605 726.394 -1.0733 725.045 0.943284 725.03L30.4197 724.816L28.3084 732.414C27.7684 734.357 26.0056 735.707 23.989 735.721V735.721Z" fill="#C3DDFF"/>
<path d="M70.348 696.788L76.8948 697.231L80.0652 693.093L79.3607 689.799C78.9391 687.827 77.2611 686.373 75.2488 686.237L64.5874 685.514L66.2364 693.225C66.6577 695.198 68.3358 696.651 70.348 696.788V696.788Z" fill="#95D6A4"/>
<path d="M58.2113 726.438L81.9711 728.047L86.6767 724.013L85.9722 720.718C85.5506 718.746 83.8725 717.293 81.8603 717.156L58.4415 715.57L53.3952 719.581L54.0997 722.875C54.5213 724.848 56.1993 726.301 58.2113 726.438V726.438Z" fill="#95D6A4"/>
<path d="M79.4183 705.736L53.3952 719.582L51.7464 711.871C51.3248 709.899 52.2614 707.886 54.0418 706.938L80.065 693.093L81.7137 700.804C82.1356 702.776 81.1987 704.789 79.4183 705.736Z" fill="#B3E59F"/>
<path d="M86.03 736.656L60.0069 750.502L58.3582 742.791C57.9366 740.819 58.8732 738.806 60.6536 737.859L86.6767 724.013L88.3254 731.724C88.7473 733.696 87.8104 735.709 86.03 736.656Z" fill="#B3E59F"/>
<path d="M97.2961 674.222C96.0486 674.222 95.0376 673.211 95.0376 671.963C95.0376 670.716 94.0274 669.705 92.7791 669.705C91.5308 669.705 90.5207 670.716 90.5207 671.963C90.5207 673.211 89.5094 674.222 88.2622 674.222C87.0139 674.222 86.0037 675.233 86.0037 676.48C86.0037 677.728 87.0139 678.739 88.2622 678.739C89.5096 678.739 90.5207 679.75 90.5207 680.997C90.5207 682.244 91.5308 683.256 92.7791 683.256C94.0274 683.256 95.0376 682.244 95.0376 680.997C95.0376 679.75 96.0489 678.739 97.2961 678.739C98.5444 678.739 99.5546 677.728 99.5546 676.48C99.5546 675.233 98.5444 674.222 97.2961 674.222Z" fill="#FF8086"/>
<path d="M79.228 660.671C75.4858 660.671 72.4525 657.637 72.4525 653.895C72.4525 652.648 71.4415 651.637 70.1941 651.637C68.9466 651.637 67.9356 652.648 67.9356 653.895C67.9356 657.637 64.902 660.671 61.1602 660.671C59.9127 660.671 58.9017 661.682 58.9017 662.929C58.9017 664.176 59.9127 665.188 61.1602 665.188C64.9023 665.188 67.9356 668.221 67.9356 671.963C67.9356 673.21 68.9466 674.222 70.1941 674.222C71.4415 674.222 72.4525 673.21 72.4525 671.963C72.4525 668.221 75.4861 665.188 79.228 665.188C80.4755 665.188 81.4865 664.176 81.4865 662.929C81.4865 661.682 80.4755 660.671 79.228 660.671Z" fill="#FFE07D"/>
</g>
<g opacity="0.5" clip-path="url(#clip4)">
<path d="M217.128 574.557L215.355 553.753C215.255 552.582 215.624 551.42 216.382 550.522C217.139 549.624 218.221 549.063 219.392 548.963L225.066 548.48L227.215 573.697L217.128 574.557Z" fill="#0296E5"/>
<path d="M225.928 558.562L224.584 542.801C224.484 541.631 224.854 540.469 225.611 539.571C226.368 538.673 227.451 538.112 228.621 538.012L234.295 537.528L235.638 553.289C235.738 554.46 235.369 555.622 234.612 556.52C233.855 557.418 232.772 557.979 231.602 558.079L225.928 558.562Z" fill="#0276B4"/>
<path d="M235.156 547.611L233.007 522.394L243.094 521.534L244.867 542.338C244.967 543.508 244.598 544.67 243.841 545.569C243.084 546.467 242.001 547.027 240.83 547.127L235.156 547.611Z" fill="#0296E5"/>
<path d="M131.268 491.226L156.393 494.35L155.69 500.003C155.545 501.169 154.943 502.229 154.016 502.952C153.089 503.674 151.913 503.998 150.747 503.853L130.019 501.276L131.268 491.226Z" fill="#02A437"/>
<path d="M151.985 483.598L167.688 485.55L166.985 491.203C166.913 491.78 166.729 492.338 166.441 492.844C166.154 493.35 165.77 493.794 165.311 494.152C164.852 494.509 164.327 494.773 163.766 494.928C163.205 495.082 162.619 495.125 162.042 495.053L146.339 493.101L147.041 487.448C147.186 486.282 147.789 485.221 148.716 484.499C149.643 483.777 150.819 483.453 151.985 483.598V483.598Z" fill="#029532"/>
<path d="M163.28 474.799L184.008 477.376L182.759 487.426L157.634 484.302L158.336 478.649C158.481 477.483 159.084 476.422 160.011 475.7C160.938 474.978 162.114 474.654 163.28 474.799V474.799Z" fill="#02A437"/>
<path d="M243.912 405.418L245.891 426.204C246.002 427.373 245.645 428.539 244.897 429.445C244.148 430.35 243.071 430.922 241.902 431.033L236.233 431.573L233.834 406.377L243.912 405.418Z" fill="#0296E5"/>
<path d="M235.279 421.492L236.778 437.239C236.89 438.409 236.532 439.574 235.784 440.48C235.036 441.385 233.958 441.957 232.789 442.068L227.12 442.608L225.62 426.861C225.509 425.692 225.867 424.526 226.615 423.62C227.363 422.715 228.44 422.143 229.61 422.032L235.279 421.492V421.492Z" fill="#0276B4"/>
<path d="M226.167 432.528L228.567 457.723L218.488 458.683L216.509 437.897C216.398 436.727 216.756 435.562 217.504 434.656C218.252 433.75 219.329 433.179 220.498 433.068L226.167 432.528Z" fill="#0296E5"/>
<path d="M258.001 450.249C260.144 452.045 263.337 451.764 265.133 449.621C266.929 447.478 266.648 444.285 264.505 442.489C262.362 440.693 259.169 440.974 257.373 443.117C255.577 445.26 255.859 448.453 258.001 450.249Z" fill="#E82F3E"/>
<path d="M260.977 545.217C263.12 547.013 266.313 546.732 268.109 544.589C269.905 542.446 269.623 539.253 267.481 537.457C265.338 535.661 262.145 535.942 260.349 538.085C258.553 540.228 258.834 543.421 260.977 545.217Z" fill="#02A437"/>
<path d="M169.316 524.543C171.459 526.339 174.652 526.057 176.448 523.915C178.244 521.772 177.962 518.579 175.82 516.783C173.677 514.987 170.484 515.268 168.688 517.411C166.892 519.554 167.173 522.747 169.316 524.543Z" fill="#E82F3E"/>
<path d="M208.189 415.108C210.332 416.903 213.525 416.622 215.321 414.479C217.117 412.336 216.836 409.143 214.693 407.347C212.55 405.552 209.357 405.833 207.561 407.976C205.765 410.119 206.046 413.312 208.189 415.108Z" fill="#EA9D2D"/>
<path d="M179.865 460.726C184.151 464.318 190.537 463.755 194.129 459.469C197.721 455.183 197.158 448.797 192.872 445.206C188.587 441.614 182.201 442.176 178.609 446.462C175.017 450.748 175.58 457.134 179.865 460.726Z" fill="#FBB540"/>
<path d="M259.776 511.184C262.99 513.878 267.78 513.456 270.473 510.241C273.167 507.027 272.745 502.237 269.531 499.544C266.317 496.85 261.527 497.272 258.833 500.486C256.139 503.7 256.561 508.49 259.776 511.184Z" fill="#0296E5"/>
<path d="M300.682 486.019C304.968 489.61 311.354 489.048 314.946 484.762C318.537 480.476 317.975 474.09 313.689 470.498C309.403 466.907 303.017 467.469 299.425 471.755C295.834 476.041 296.396 482.427 300.682 486.019Z" fill="#E82F3E"/>
<path d="M241.404 473.797L236.304 486.44L246.753 495.197C247.162 495.54 247.452 496.003 247.581 496.521C247.71 497.039 247.673 497.584 247.473 498.079C247.273 498.574 246.922 498.993 246.47 499.276C246.018 499.559 245.487 499.692 244.955 499.655L231.354 498.712L226.255 511.355C226.055 511.85 225.704 512.269 225.252 512.553C224.799 512.836 224.269 512.968 223.736 512.931C223.204 512.894 222.697 512.69 222.288 512.347C221.879 512.004 221.589 511.541 221.46 511.023L218.153 497.796L204.551 496.854C204.019 496.818 203.512 496.613 203.103 496.27C202.694 495.928 202.404 495.464 202.274 494.946C202.145 494.429 202.183 493.883 202.382 493.388C202.582 492.893 202.933 492.474 203.386 492.191L214.943 484.96L211.637 471.734C211.507 471.216 211.545 470.67 211.745 470.175C211.945 469.68 212.296 469.261 212.749 468.978C213.201 468.695 213.732 468.563 214.265 468.6C214.797 468.637 215.304 468.842 215.713 469.185L226.161 477.941L237.718 470.71C238.17 470.426 238.701 470.293 239.234 470.329C239.767 470.366 240.274 470.57 240.684 470.913C241.093 471.256 241.383 471.72 241.513 472.238C241.642 472.756 241.604 473.302 241.404 473.797V473.797Z" fill="#FBB540"/>
<path d="M204.739 511.276L207.669 526.175L197.736 528.128L194.806 513.229L204.739 511.276Z" fill="#02A437"/>
<path d="M297.148 499.498L300.078 514.397L290.145 516.351L287.215 501.451L297.148 499.498Z" fill="#029532"/>
<path d="M258.795 472.887L273.695 469.957L275.648 479.891L260.748 482.82L258.795 472.887Z" fill="#02A437"/>
<path d="M283.591 455.182C283.336 454.969 283.126 454.707 282.972 454.412C282.818 454.117 282.724 453.795 282.695 453.464L282.067 446.332C282.038 446.001 282.074 445.667 282.174 445.35C282.274 445.033 282.435 444.739 282.649 444.484C282.862 444.229 283.124 444.019 283.419 443.865C283.713 443.712 284.035 443.618 284.367 443.588C284.698 443.559 285.031 443.596 285.348 443.695C285.666 443.795 285.96 443.956 286.215 444.17C286.469 444.383 286.68 444.645 286.833 444.94C286.987 445.235 287.081 445.557 287.11 445.888L287.739 453.02C287.782 453.518 287.678 454.019 287.437 454.458C287.196 454.897 286.831 455.255 286.387 455.486C285.943 455.718 285.441 455.812 284.943 455.758C284.445 455.704 283.975 455.503 283.591 455.182V455.182Z" fill="#E82F3E"/>
<path d="M180.067 503.829C179.716 503.535 179.452 503.151 179.302 502.718C179.153 502.285 179.123 501.82 179.217 501.371C179.311 500.923 179.525 500.509 179.836 500.172C180.147 499.836 180.543 499.59 180.983 499.462L189.741 496.893C190.384 496.709 191.074 496.786 191.66 497.108C192.246 497.431 192.681 497.972 192.869 498.614C193.057 499.256 192.983 499.946 192.664 500.534C192.345 501.122 191.806 501.56 191.165 501.751L182.407 504.32C182.007 504.437 181.584 504.454 181.176 504.369C180.767 504.283 180.387 504.098 180.067 503.829V503.829Z" fill="#E82F3E"/>
<path d="M202.296 552.183C202.041 551.97 201.831 551.708 201.677 551.414C201.523 551.119 201.429 550.796 201.401 550.465L200.772 543.333C200.714 542.665 200.923 542 201.354 541.485C201.785 540.971 202.403 540.649 203.072 540.59C203.741 540.531 204.405 540.74 204.92 541.171C205.434 541.602 205.757 542.22 205.816 542.889L206.444 550.021C206.488 550.52 206.383 551.02 206.142 551.459C205.902 551.898 205.536 552.256 205.092 552.488C204.649 552.719 204.146 552.814 203.648 552.759C203.15 552.705 202.68 552.505 202.296 552.183V552.183Z" fill="#E82F3E"/>
<path d="M266.538 526.759C266.154 526.438 265.875 526.009 265.734 525.529C265.594 525.048 265.599 524.537 265.749 524.059C265.9 523.582 266.188 523.16 266.578 522.846C266.969 522.532 267.443 522.341 267.942 522.298L275.074 521.669C275.742 521.61 276.407 521.82 276.922 522.251C277.436 522.682 277.758 523.3 277.817 523.969C277.876 524.637 277.667 525.302 277.236 525.817C276.805 526.331 276.187 526.653 275.518 526.712L268.386 527.341C268.055 527.37 267.721 527.334 267.404 527.234C267.087 527.135 266.793 526.973 266.538 526.759V526.759Z" fill="#E82F3E"/>
<path d="M191.616 430.942C191.361 430.729 191.15 430.467 190.997 430.172C190.843 429.877 190.749 429.555 190.72 429.224L190.092 422.092C190.063 421.761 190.099 421.427 190.199 421.11C190.299 420.793 190.46 420.499 190.674 420.244C190.887 419.989 191.149 419.779 191.443 419.625C191.738 419.472 192.06 419.378 192.391 419.348C193.06 419.29 193.725 419.499 194.24 419.93C194.494 420.143 194.705 420.405 194.858 420.7C195.012 420.995 195.106 421.317 195.135 421.648L195.763 428.78C195.807 429.278 195.702 429.779 195.462 430.218C195.221 430.657 194.856 431.015 194.412 431.246C193.968 431.478 193.466 431.572 192.968 431.518C192.47 431.464 192 431.263 191.616 430.942V430.942Z" fill="#E82F3E"/>
</g>
<g opacity="0.5">
<path d="M334.189 105.717L355.451 91.9723L358.544 96.7564C359.182 97.7432 359.402 98.9431 359.155 100.092C358.908 101.241 358.215 102.245 357.228 102.883L339.687 114.222L334.189 105.717Z" fill="#02A437"/>
<path d="M345.167 86.5633L358.456 77.9729L361.548 82.757C361.864 83.2456 362.081 83.7917 362.186 84.364C362.291 84.9363 362.282 85.5237 362.159 86.0926C362.037 86.6615 361.804 87.2007 361.474 87.6795C361.143 88.1583 360.721 88.5674 360.233 88.8832L346.944 97.4737L343.851 92.6896C343.213 91.7027 342.993 90.5029 343.24 89.354C343.487 88.2051 344.18 87.2013 345.167 86.5633V86.5633Z" fill="#029532"/>
<path d="M348.172 72.5645L365.713 61.2252L371.211 69.7302L349.949 83.4748L346.856 78.6908C346.218 77.7039 345.999 76.5041 346.245 75.3552C346.492 74.2063 347.185 73.2025 348.172 72.5645V72.5645Z" fill="#02A437"/>
<path d="M369.113 -14.5385L380.377 -3.43259C381.214 -2.60786 381.688 -1.48462 381.697 -0.309974C381.705 0.864675 381.246 1.99451 380.422 2.83099L376.424 6.88605L365.159 -4.21981C364.323 -5.04454 363.848 -6.16778 363.84 -7.34243C363.832 -8.51707 364.29 -9.64691 365.115 -10.4834L369.113 -14.5385V-14.5385Z" fill="#0276B4"/>
<path d="M369.219 -0.227905L387.241 17.5415L380.133 24.7505L365.265 10.0907C364.428 9.266 363.954 8.14277 363.945 6.96812C363.937 5.79347 364.396 4.66363 365.221 3.82716L369.219 -0.227905Z" fill="#0296E5"/>
<path d="M384.75 106.812C387.546 106.812 389.813 104.546 389.813 101.75C389.813 98.9541 387.546 96.6875 384.75 96.6875C381.954 96.6875 379.688 98.9541 379.688 101.75C379.688 104.546 381.954 106.812 384.75 106.812Z" fill="#E82F3E"/>
<path d="M351.844 51.125C357.436 51.125 361.969 46.5919 361.969 41C361.969 35.4081 357.436 30.875 351.844 30.875C346.252 30.875 341.719 35.4081 341.719 41C341.719 46.5919 346.252 51.125 351.844 51.125Z" fill="#FBB540"/>
<path d="M407.405 21.6151L411.618 34.5811H425.25C425.784 34.5811 426.304 34.7501 426.735 35.0637C427.167 35.3774 427.488 35.8197 427.653 36.3272C427.818 36.8347 427.818 37.3814 427.653 37.8889C427.488 38.3965 427.167 38.8388 426.736 39.1525L415.706 47.1658L419.919 60.1318C420.084 60.6394 420.084 61.1861 419.919 61.6937C419.754 62.2013 419.433 62.6436 419.001 62.9573C418.569 63.271 418.049 63.4399 417.516 63.4399C416.982 63.4398 416.462 63.2708 416.03 62.957L405 54.9437L393.97 62.9586C393.539 63.2724 393.019 63.4414 392.485 63.4414C391.951 63.4415 391.431 63.2726 391 62.9589C390.568 62.6452 390.246 62.2028 390.082 61.6953C389.917 61.1877 389.917 60.6409 390.082 60.1334L394.295 47.1674L383.265 39.1541C382.833 38.8403 382.512 38.3978 382.347 37.8901C382.182 37.3824 382.182 36.8356 382.348 36.328C382.513 35.8204 382.834 35.3782 383.266 35.0646C383.698 34.7511 384.218 34.5823 384.752 34.5826H398.384L402.597 21.6166C402.761 21.1085 403.082 20.6656 403.514 20.3513C403.946 20.0371 404.466 19.8677 405 19.8676C405.534 19.8674 406.055 20.0364 406.487 20.3504C406.919 20.6643 407.24 21.1071 407.405 21.6151V21.6151Z" fill="#FBB540"/>
<path d="M403.378 73.8907L415.194 83.4285L408.835 91.3057L397.019 81.768L403.378 73.8907Z" fill="#02A437"/>
<path d="M379.685 84.0313C379.227 84.0309 378.778 83.9063 378.385 83.6706C377.992 83.435 377.671 83.0972 377.455 82.6933C377.239 82.2893 377.137 81.8344 377.159 81.3769C377.181 80.9194 377.327 80.4765 377.581 80.0955L382.644 72.5017C383.018 71.9471 383.597 71.5631 384.253 71.4337C384.909 71.3043 385.59 71.44 386.147 71.8112C386.703 72.1823 387.09 72.7587 387.223 73.4143C387.356 74.07 387.224 74.7516 386.856 75.3102L381.793 82.9039C381.562 83.2512 381.249 83.5358 380.881 83.7325C380.513 83.9292 380.102 84.0319 379.685 84.0313V84.0313Z" fill="#E82F3E"/>
<path d="M341.719 20.75C341.386 20.7504 341.057 20.6852 340.75 20.5579C340.443 20.4307 340.164 20.2441 339.929 20.0087L334.866 14.9462C334.631 14.7111 334.445 14.4321 334.318 14.125C334.19 13.8178 334.125 13.4887 334.125 13.1563C334.125 12.8238 334.19 12.4947 334.318 12.1876C334.445 11.8804 334.631 11.6014 334.866 11.3663C335.341 10.8916 335.985 10.6249 336.656 10.6249C336.989 10.6249 337.318 10.6904 337.625 10.8176C337.932 10.9448 338.211 11.1313 338.446 11.3663L343.509 16.4288C343.863 16.7829 344.104 17.2339 344.201 17.7249C344.299 18.2159 344.249 18.7249 344.057 19.1874C343.866 19.65 343.541 20.0453 343.125 20.3234C342.709 20.6016 342.219 20.75 341.719 20.75V20.75Z" fill="#E82F3E"/>
</g>
<g opacity="0.5">
<path d="M255.52 289.433L240.798 274.627C239.97 273.794 239.506 272.667 239.509 271.492C239.513 270.317 239.983 269.192 240.816 268.364L244.854 264.349L262.699 282.295L255.52 289.433Z" fill="#0296E5"/>
<path d="M251.99 271.523L240.837 260.306C240.009 259.473 239.545 258.345 239.549 257.171C239.552 255.996 240.022 254.871 240.855 254.042L244.893 250.027L256.046 261.244C256.874 262.077 257.338 263.205 257.335 264.379C257.331 265.554 256.861 266.679 256.028 267.507L251.99 271.523Z" fill="#0276B4"/>
<path d="M252.029 257.201L234.184 239.255L241.363 232.117L256.085 246.922C256.913 247.755 257.377 248.883 257.373 250.058C257.37 251.233 256.9 252.358 256.067 253.186L252.029 257.201Z" fill="#0296E5"/>
<path d="M136.189 280.717L157.451 266.972L160.544 271.756C161.182 272.743 161.402 273.943 161.155 275.092C160.908 276.241 160.215 277.245 159.228 277.883L141.687 289.222L136.189 280.717Z" fill="#02A437"/>
<path d="M147.167 261.563L160.456 252.973L163.548 257.757C163.864 258.246 164.081 258.792 164.186 259.364C164.291 259.936 164.282 260.524 164.159 261.093C164.037 261.661 163.804 262.201 163.474 262.68C163.143 263.158 162.721 263.567 162.233 263.883L148.944 272.474L145.851 267.69C145.213 266.703 144.993 265.503 145.24 264.354C145.487 263.205 146.18 262.201 147.167 261.563V261.563Z" fill="#029532"/>
<path d="M150.172 247.565L167.713 236.225L173.211 244.73L151.949 258.475L148.856 253.691C148.218 252.704 147.999 251.504 148.245 250.355C148.492 249.206 149.185 248.202 150.172 247.565V247.565Z" fill="#02A437"/>
<path d="M167.405 142.596L182.273 157.256C183.11 158.081 183.584 159.204 183.593 160.379C183.601 161.553 183.142 162.683 182.318 163.52L178.32 167.575L160.297 149.805L167.405 142.596Z" fill="#0296E5"/>
<path d="M171.113 160.462L182.377 171.567C183.214 172.392 183.688 173.515 183.697 174.69C183.705 175.865 183.246 176.995 182.422 177.831L178.424 181.886L167.159 170.78C166.323 169.955 165.848 168.832 165.84 167.658C165.832 166.483 166.29 165.353 167.115 164.517L171.113 160.462V160.462Z" fill="#0276B4"/>
<path d="M171.219 174.772L189.241 192.541L182.133 199.75L167.265 185.091C166.428 184.266 165.954 183.143 165.945 181.968C165.937 180.793 166.396 179.664 167.221 178.827L171.219 174.772Z" fill="#0296E5"/>
<path d="M207 167.906C209.796 167.906 212.062 165.64 212.062 162.844C212.062 160.048 209.796 157.781 207 157.781C204.204 157.781 201.938 160.048 201.938 162.844C201.938 165.64 204.204 167.906 207 167.906Z" fill="#E82F3E"/>
<path d="M270.281 238.781C273.077 238.781 275.344 236.515 275.344 233.719C275.344 230.923 273.077 228.656 270.281 228.656C267.485 228.656 265.219 230.923 265.219 233.719C265.219 236.515 267.485 238.781 270.281 238.781Z" fill="#02A437"/>
<path d="M186.75 281.812C189.546 281.812 191.812 279.546 191.812 276.75C191.812 273.954 189.546 271.687 186.75 271.687C183.954 271.687 181.687 273.954 181.687 276.75C181.687 279.546 183.954 281.812 186.75 281.812Z" fill="#E82F3E"/>
<path d="M146.25 172.969C149.046 172.969 151.312 170.702 151.312 167.906C151.312 165.11 149.046 162.844 146.25 162.844C143.454 162.844 141.188 165.11 141.188 167.906C141.188 170.702 143.454 172.969 146.25 172.969Z" fill="#EA9D2D"/>
<path d="M153.844 226.125C159.436 226.125 163.969 221.592 163.969 216C163.969 210.408 159.436 205.875 153.844 205.875C148.252 205.875 143.719 210.408 143.719 216C143.719 221.592 148.252 226.125 153.844 226.125Z" fill="#FBB540"/>
<path d="M247.5 213.469C251.694 213.469 255.094 210.069 255.094 205.875C255.094 201.681 251.694 198.281 247.5 198.281C243.306 198.281 239.906 201.681 239.906 205.875C239.906 210.069 243.306 213.469 247.5 213.469Z" fill="#0296E5"/>
<path d="M262.688 167.906C268.279 167.906 272.812 163.373 272.812 157.781C272.812 152.189 268.279 147.656 262.688 147.656C257.096 147.656 252.562 152.189 252.562 157.781C252.562 163.373 257.096 167.906 262.688 167.906Z" fill="#E82F3E"/>
<path d="M209.405 196.615L213.618 209.581H227.25C227.784 209.581 228.304 209.75 228.735 210.064C229.167 210.377 229.488 210.82 229.653 211.327C229.818 211.835 229.818 212.381 229.653 212.889C229.488 213.396 229.167 213.839 228.736 214.152L217.706 222.166L221.919 235.132C222.084 235.639 222.084 236.186 221.919 236.694C221.754 237.201 221.433 237.644 221.001 237.957C220.569 238.271 220.049 238.44 219.516 238.44C218.982 238.44 218.462 238.271 218.03 237.957L207 229.944L195.97 237.959C195.539 238.272 195.019 238.441 194.485 238.441C193.951 238.441 193.431 238.273 193 237.959C192.568 237.645 192.246 237.203 192.082 236.695C191.917 236.188 191.917 235.641 192.082 235.133L196.295 222.167L185.265 214.154C184.833 213.84 184.512 213.398 184.347 212.89C184.182 212.382 184.182 211.836 184.348 211.328C184.513 210.82 184.834 210.378 185.266 210.065C185.698 209.751 186.218 209.582 186.752 209.583H200.384L204.597 196.617C204.761 196.109 205.082 195.666 205.514 195.351C205.946 195.037 206.466 194.868 207 194.868C207.534 194.867 208.055 195.036 208.487 195.35C208.919 195.664 209.24 196.107 209.405 196.615V196.615Z" fill="#FBB540"/>
<path d="M205.378 248.891L217.194 258.428L210.835 266.306L199.019 256.768L205.378 248.891Z" fill="#02A437"/>
<path d="M268.637 180.507L280.453 190.045L274.095 197.922L262.279 188.384L268.637 180.507Z" fill="#029532"/>
<path d="M222.149 184.747L231.687 172.931L239.564 179.29L230.027 191.106L222.149 184.747Z" fill="#02A437"/>
<path d="M229.781 155.25C229.449 155.25 229.12 155.185 228.812 155.058C228.505 154.931 228.226 154.744 227.991 154.509L222.929 149.446C222.694 149.211 222.507 148.932 222.38 148.625C222.253 148.318 222.187 147.989 222.187 147.656C222.187 147.324 222.253 146.995 222.38 146.688C222.507 146.38 222.694 146.101 222.929 145.866C223.164 145.631 223.443 145.445 223.75 145.318C224.057 145.19 224.386 145.125 224.719 145.125C225.051 145.125 225.38 145.19 225.687 145.318C225.995 145.445 226.274 145.631 226.509 145.866L231.571 150.929C231.925 151.283 232.166 151.734 232.264 152.225C232.362 152.716 232.312 153.225 232.12 153.687C231.928 154.15 231.604 154.545 231.188 154.823C230.771 155.102 230.282 155.25 229.781 155.25V155.25Z" fill="#E82F3E"/>
<path d="M181.685 259.031C181.227 259.031 180.778 258.906 180.385 258.671C179.992 258.435 179.671 258.097 179.455 257.693C179.239 257.289 179.137 256.834 179.159 256.377C179.181 255.919 179.327 255.477 179.581 255.095L184.644 247.502C185.018 246.947 185.597 246.563 186.253 246.434C186.909 246.304 187.59 246.44 188.147 246.811C188.703 247.182 189.09 247.759 189.223 248.414C189.356 249.07 189.224 249.752 188.856 250.31L183.793 257.904C183.562 258.251 183.249 258.536 182.881 258.732C182.513 258.929 182.102 259.032 181.685 259.031V259.031Z" fill="#E82F3E"/>
<path d="M229.781 281.813C229.449 281.813 229.12 281.748 228.812 281.62C228.505 281.493 228.226 281.307 227.991 281.071L222.929 276.009C222.454 275.534 222.187 274.89 222.187 274.219C222.187 273.547 222.454 272.904 222.929 272.429C223.404 271.954 224.047 271.687 224.719 271.687C225.39 271.687 226.034 271.954 226.509 272.429L231.571 277.491C231.925 277.845 232.166 278.296 232.264 278.787C232.362 279.278 232.312 279.787 232.12 280.25C231.928 280.712 231.604 281.108 231.188 281.386C230.771 281.664 230.282 281.813 229.781 281.813V281.813Z" fill="#E82F3E"/>
<path d="M262.687 221.063C262.187 221.063 261.697 220.914 261.281 220.636C260.865 220.358 260.54 219.962 260.349 219.5C260.157 219.037 260.107 218.528 260.205 218.037C260.302 217.546 260.544 217.095 260.898 216.741L265.96 211.679C266.435 211.204 267.079 210.937 267.75 210.937C268.421 210.937 269.065 211.204 269.54 211.679C270.015 212.154 270.281 212.797 270.281 213.469C270.281 214.14 270.015 214.784 269.54 215.259L264.477 220.321C264.243 220.557 263.964 220.743 263.656 220.87C263.349 220.998 263.02 221.063 262.687 221.063V221.063Z" fill="#E82F3E"/>
<path d="M143.719 195.75C143.386 195.75 143.057 195.685 142.75 195.558C142.443 195.431 142.164 195.244 141.929 195.009L136.866 189.946C136.631 189.711 136.445 189.432 136.318 189.125C136.19 188.818 136.125 188.489 136.125 188.156C136.125 187.824 136.19 187.495 136.318 187.188C136.445 186.88 136.631 186.601 136.866 186.366C137.341 185.892 137.985 185.625 138.656 185.625C138.989 185.625 139.318 185.69 139.625 185.818C139.932 185.945 140.211 186.131 140.446 186.366L145.509 191.429C145.863 191.783 146.104 192.234 146.201 192.725C146.299 193.216 146.249 193.725 146.057 194.187C145.866 194.65 145.541 195.045 145.125 195.323C144.709 195.602 144.219 195.75 143.719 195.75V195.75Z" fill="#E82F3E"/>
</g>
</g>
<defs>
<clipPath id="clip0">
<rect width="414" height="736" fill="white"/>
</clipPath>
<clipPath id="clip1">
<rect width="112" height="112" fill="white" transform="translate(78.7037 289) rotate(85.8314)"/>
</clipPath>
<clipPath id="clip2">
<rect width="139" height="139" fill="white" transform="translate(20.4956 -28.6604) rotate(42.0815)"/>
</clipPath>
<clipPath id="clip3">
<rect width="139" height="139" fill="white" transform="translate(445.126 241) rotate(71.9054)"/>
</clipPath>
<clipPath id="clip4">
<rect width="162" height="162" fill="white" transform="translate(217.057 373) rotate(39.9657)"/>
</clipPath>
</defs>
</svg>
